<svg width="378" height="464" viewBox="0 0 378 464" fill="none" xmlns="http://www.w3.org/2000/svg">
<g filter="url(#filter0_dddd)">
<rect x="69" y="0.548737" width="239.904" height="308.448" rx="20.5632" fill="#FAF8F5"/>
<path d="M151.164 85.8355L100.699 136.3H276.343L218.014 77.9709L180.656 115.328L151.164 85.8355Z" fill="url(#paint0_linear)"/>
<circle cx="175.412" cy="64.863" r="13.7631" fill="url(#paint1_linear)"/>
<path d="M136.75 179.9V181.627H128.175V167.377H130.169V179.9H136.75ZM148.94 176.281C148.94 177.13 148.817 177.898 148.57 178.584C148.323 179.269 147.974 179.859 147.521 180.352C147.083 180.846 146.555 181.229 145.938 181.504C145.321 181.764 144.649 181.894 143.923 181.894C143.196 181.894 142.524 181.764 141.908 181.504C141.291 181.229 140.756 180.846 140.304 180.352C139.865 179.859 139.522 179.269 139.275 178.584C139.029 177.898 138.905 177.13 138.905 176.281C138.905 175.444 139.029 174.683 139.275 173.998C139.522 173.299 139.865 172.703 140.304 172.209C140.756 171.716 141.291 171.339 141.908 171.078C142.524 170.804 143.196 170.667 143.923 170.667C144.649 170.667 145.321 170.804 145.938 171.078C146.555 171.339 147.083 171.716 147.521 172.209C147.974 172.703 148.323 173.299 148.57 173.998C148.817 174.683 148.94 175.444 148.94 176.281ZM146.945 176.281C146.945 175.074 146.671 174.121 146.123 173.422C145.588 172.709 144.855 172.353 143.923 172.353C142.991 172.353 142.25 172.709 141.702 173.422C141.167 174.121 140.9 175.074 140.9 176.281C140.9 177.487 141.167 178.447 141.702 179.159C142.25 179.859 142.991 180.208 143.923 180.208C144.855 180.208 145.588 179.859 146.123 179.159C146.671 178.447 146.945 177.487 146.945 176.281ZM156.607 170.708C156.771 170.708 156.957 170.722 157.162 170.749C157.382 170.763 157.594 170.79 157.8 170.831C158.005 170.859 158.19 170.893 158.355 170.934C158.533 170.962 158.663 170.989 158.746 171.016L158.417 172.682C158.266 172.627 158.012 172.565 157.656 172.497C157.313 172.415 156.867 172.374 156.319 172.374C155.963 172.374 155.606 172.415 155.25 172.497C154.907 172.565 154.681 172.613 154.571 172.641V181.627H152.659V171.386C153.111 171.222 153.673 171.071 154.345 170.934C155.017 170.783 155.771 170.708 156.607 170.708ZM161.023 176.301C161.023 175.355 161.16 174.533 161.434 173.834C161.708 173.121 162.071 172.531 162.524 172.065C162.976 171.599 163.497 171.249 164.087 171.016C164.676 170.783 165.279 170.667 165.896 170.667C167.336 170.667 168.439 171.119 169.207 172.024C169.975 172.915 170.358 174.279 170.358 176.116C170.358 176.198 170.358 176.308 170.358 176.445C170.358 176.568 170.352 176.685 170.338 176.795H163.017C163.1 177.905 163.422 178.748 163.984 179.324C164.546 179.9 165.423 180.188 166.616 180.188C167.288 180.188 167.85 180.133 168.302 180.023C168.768 179.9 169.118 179.783 169.351 179.673L169.618 181.277C169.385 181.401 168.974 181.531 168.384 181.668C167.809 181.805 167.151 181.874 166.41 181.874C165.478 181.874 164.669 181.737 163.984 181.462C163.312 181.175 162.757 180.784 162.318 180.29C161.88 179.797 161.551 179.214 161.331 178.542C161.126 177.857 161.023 177.11 161.023 176.301ZM168.364 175.252C168.378 174.389 168.158 173.683 167.706 173.134C167.267 172.572 166.657 172.291 165.876 172.291C165.437 172.291 165.046 172.38 164.704 172.559C164.375 172.723 164.094 172.942 163.86 173.217C163.627 173.491 163.442 173.806 163.305 174.163C163.182 174.519 163.1 174.882 163.059 175.252H168.364ZM174.134 171.243C174.572 171.133 175.148 171.016 175.861 170.893C176.588 170.77 177.424 170.708 178.37 170.708C179.055 170.708 179.631 170.804 180.097 170.996C180.563 171.174 180.954 171.441 181.269 171.798C181.365 171.729 181.516 171.633 181.722 171.51C181.927 171.386 182.181 171.27 182.482 171.16C182.784 171.037 183.12 170.934 183.49 170.852C183.86 170.756 184.258 170.708 184.683 170.708C185.505 170.708 186.177 170.831 186.698 171.078C187.219 171.311 187.623 171.647 187.911 172.086C188.213 172.524 188.411 173.045 188.507 173.648C188.617 174.252 188.672 174.91 188.672 175.623V181.627H186.759V176.034C186.759 175.403 186.725 174.862 186.657 174.409C186.602 173.957 186.485 173.58 186.307 173.278C186.143 172.977 185.91 172.757 185.608 172.62C185.32 172.469 184.943 172.394 184.477 172.394C183.833 172.394 183.298 172.483 182.873 172.661C182.462 172.826 182.181 172.977 182.03 173.114C182.14 173.47 182.222 173.861 182.277 174.286C182.332 174.711 182.359 175.156 182.359 175.623V181.627H180.447V176.034C180.447 175.403 180.412 174.862 180.344 174.409C180.275 173.957 180.152 173.58 179.974 173.278C179.809 172.977 179.576 172.757 179.274 172.62C178.987 172.469 178.616 172.394 178.164 172.394C177.972 172.394 177.767 172.401 177.547 172.415C177.328 172.428 177.115 172.449 176.91 172.476C176.718 172.49 176.54 172.511 176.375 172.538C176.211 172.565 176.101 172.586 176.046 172.6V181.627H174.134V171.243ZM200.573 181.627H198.661V170.934H200.573V181.627ZM199.607 169.001C199.264 169.001 198.969 168.891 198.723 168.672C198.49 168.439 198.373 168.131 198.373 167.747C198.373 167.363 198.49 167.061 198.723 166.842C198.969 166.609 199.264 166.492 199.607 166.492C199.95 166.492 200.237 166.609 200.47 166.842C200.717 167.061 200.841 167.363 200.841 167.747C200.841 168.131 200.717 168.439 200.47 168.672C200.237 168.891 199.95 169.001 199.607 169.001ZM212.313 176.301C212.313 175.054 212.005 174.094 211.388 173.422C210.771 172.751 209.949 172.415 208.92 172.415C208.345 172.415 207.892 172.435 207.563 172.476C207.248 172.517 206.994 172.565 206.802 172.62V179.365C207.036 179.557 207.371 179.742 207.81 179.92C208.249 180.098 208.729 180.188 209.25 180.188C209.798 180.188 210.264 180.092 210.648 179.9C211.045 179.694 211.368 179.42 211.614 179.077C211.861 178.721 212.039 178.309 212.149 177.843C212.259 177.364 212.313 176.849 212.313 176.301ZM214.308 176.301C214.308 177.11 214.198 177.857 213.979 178.542C213.773 179.228 213.465 179.817 213.054 180.311C212.642 180.804 212.135 181.188 211.532 181.462C210.943 181.737 210.264 181.874 209.496 181.874C208.879 181.874 208.331 181.791 207.851 181.627C207.385 181.462 207.036 181.305 206.802 181.154V185.431H204.89V171.263C205.343 171.153 205.905 171.037 206.576 170.914C207.262 170.776 208.05 170.708 208.941 170.708C209.764 170.708 210.504 170.838 211.162 171.099C211.82 171.359 212.382 171.729 212.848 172.209C213.314 172.689 213.671 173.278 213.917 173.977C214.178 174.663 214.308 175.437 214.308 176.301ZM220.515 180.249C221.297 180.249 221.873 180.146 222.243 179.941C222.627 179.735 222.818 179.406 222.818 178.954C222.818 178.488 222.633 178.118 222.263 177.843C221.893 177.569 221.283 177.261 220.433 176.918C220.022 176.753 219.624 176.589 219.24 176.424C218.87 176.246 218.548 176.041 218.274 175.808C218 175.575 217.78 175.293 217.616 174.964C217.451 174.635 217.369 174.231 217.369 173.751C217.369 172.805 217.719 172.058 218.418 171.51C219.117 170.948 220.07 170.667 221.276 170.667C221.578 170.667 221.879 170.687 222.181 170.728C222.483 170.756 222.764 170.797 223.024 170.852C223.285 170.893 223.511 170.941 223.703 170.996C223.908 171.051 224.066 171.099 224.176 171.14L223.826 172.785C223.62 172.675 223.298 172.565 222.86 172.456C222.421 172.332 221.893 172.271 221.276 172.271C220.742 172.271 220.275 172.38 219.878 172.6C219.48 172.805 219.282 173.134 219.282 173.587C219.282 173.82 219.323 174.025 219.405 174.204C219.501 174.382 219.638 174.546 219.816 174.697C220.008 174.834 220.241 174.964 220.515 175.088C220.79 175.211 221.119 175.341 221.502 175.479C222.01 175.67 222.462 175.862 222.86 176.054C223.257 176.233 223.593 176.445 223.867 176.692C224.155 176.939 224.374 177.24 224.525 177.597C224.676 177.939 224.751 178.364 224.751 178.871C224.751 179.859 224.381 180.606 223.641 181.113C222.914 181.62 221.873 181.874 220.515 181.874C219.569 181.874 218.829 181.791 218.295 181.627C217.76 181.476 217.397 181.36 217.205 181.277L217.554 179.632C217.774 179.715 218.123 179.838 218.603 180.002C219.083 180.167 219.72 180.249 220.515 180.249ZM236.746 181.319C236.307 181.428 235.724 181.545 234.998 181.668C234.285 181.791 233.456 181.853 232.51 181.853C231.687 181.853 230.995 181.737 230.433 181.504C229.871 181.257 229.418 180.914 229.076 180.475C228.733 180.037 228.486 179.523 228.335 178.933C228.185 178.33 228.109 177.665 228.109 176.939V170.934H230.022V176.527C230.022 177.83 230.227 178.762 230.638 179.324C231.05 179.886 231.742 180.167 232.715 180.167C232.921 180.167 233.133 180.16 233.353 180.146C233.572 180.133 233.778 180.119 233.97 180.105C234.162 180.078 234.333 180.057 234.484 180.044C234.648 180.016 234.765 179.989 234.833 179.961V170.934H236.746V181.319ZM241.068 171.243C241.507 171.133 242.083 171.016 242.796 170.893C243.522 170.77 244.359 170.708 245.304 170.708C245.99 170.708 246.566 170.804 247.032 170.996C247.498 171.174 247.889 171.441 248.204 171.798C248.3 171.729 248.451 171.633 248.656 171.51C248.862 171.386 249.116 171.27 249.417 171.16C249.719 171.037 250.055 170.934 250.425 170.852C250.795 170.756 251.192 170.708 251.617 170.708C252.44 170.708 253.112 170.831 253.633 171.078C254.153 171.311 254.558 171.647 254.846 172.086C255.147 172.524 255.346 173.045 255.442 173.648C255.552 174.252 255.607 174.91 255.607 175.623V181.627H253.694V176.034C253.694 175.403 253.66 174.862 253.591 174.409C253.537 173.957 253.42 173.58 253.242 173.278C253.077 172.977 252.844 172.757 252.543 172.62C252.255 172.469 251.878 172.394 251.412 172.394C250.767 172.394 250.233 172.483 249.808 172.661C249.397 172.826 249.116 172.977 248.965 173.114C249.074 173.47 249.157 173.861 249.211 174.286C249.266 174.711 249.294 175.156 249.294 175.623V181.627H247.381V176.034C247.381 175.403 247.347 174.862 247.279 174.409C247.21 173.957 247.087 173.58 246.908 173.278C246.744 172.977 246.511 172.757 246.209 172.62C245.921 172.469 245.551 172.394 245.099 172.394C244.907 172.394 244.701 172.401 244.482 172.415C244.263 172.428 244.05 172.449 243.844 172.476C243.653 172.49 243.474 172.511 243.31 172.538C243.145 172.565 243.036 172.586 242.981 172.6V181.627H241.068V171.243Z" fill="#404040"/>
<path d="M109.407 203.119H110.669V210.686H114.356V211.756H109.407V203.119ZM121.403 208.466C121.403 209.005 121.321 209.489 121.156 209.919C120.992 210.339 120.763 210.696 120.471 210.988C120.188 211.28 119.854 211.504 119.47 211.66C119.086 211.806 118.671 211.879 118.223 211.879C117.775 211.879 117.359 211.811 116.975 211.673C116.601 211.527 116.272 211.317 115.988 211.043C115.714 210.76 115.495 210.417 115.33 210.015C115.175 209.603 115.097 209.133 115.097 208.603C115.097 208.063 115.179 207.584 115.344 207.163C115.508 206.743 115.732 206.391 116.016 206.108C116.308 205.815 116.646 205.596 117.03 205.45C117.414 205.294 117.83 205.217 118.278 205.217C118.725 205.217 119.137 205.285 119.511 205.422C119.895 205.559 120.224 205.765 120.498 206.039C120.782 206.313 121.001 206.656 121.156 207.067C121.321 207.469 121.403 207.936 121.403 208.466ZM120.142 208.534C120.142 208.105 120.087 207.739 119.978 207.437C119.868 207.136 119.722 206.889 119.539 206.697C119.365 206.505 119.164 206.368 118.936 206.286C118.707 206.195 118.474 206.149 118.237 206.149C117.999 206.149 117.766 206.185 117.537 206.258C117.309 206.332 117.108 206.46 116.934 206.642C116.761 206.825 116.619 207.072 116.509 207.383C116.409 207.684 116.358 208.068 116.358 208.534C116.358 208.964 116.413 209.334 116.523 209.645C116.633 209.946 116.774 210.193 116.948 210.385C117.131 210.577 117.336 210.718 117.565 210.81C117.793 210.901 118.026 210.947 118.264 210.947C118.502 210.947 118.735 210.91 118.963 210.837C119.192 210.755 119.393 210.622 119.566 210.44C119.74 210.248 119.877 210.001 119.978 209.699C120.087 209.389 120.142 209 120.142 208.534ZM122.844 211.756V205.313H123.749L123.954 206.601C124.11 206.19 124.366 205.856 124.722 205.6C125.078 205.345 125.49 205.217 125.956 205.217C126.193 205.217 126.39 205.235 126.545 205.271C126.701 205.308 126.842 205.354 126.97 205.409L126.737 206.464C126.627 206.409 126.504 206.364 126.367 206.327C126.239 206.29 126.084 206.272 125.901 206.272C125.636 206.272 125.389 206.318 125.161 206.409C124.941 206.501 124.745 206.638 124.571 206.821C124.407 207.003 124.274 207.232 124.174 207.506C124.082 207.771 124.037 208.077 124.037 208.424V211.756H122.844ZM133.121 208.671H128.501V208.726C128.501 209.439 128.693 209.987 129.077 210.371C129.47 210.755 130 210.947 130.667 210.947C131.014 210.947 131.32 210.919 131.585 210.865C131.86 210.81 132.157 210.718 132.476 210.59L132.723 211.482C132.458 211.6 132.143 211.696 131.777 211.769C131.421 211.843 131.037 211.879 130.626 211.879C130.16 211.879 129.721 211.815 129.31 211.687C128.908 211.559 128.551 211.363 128.24 211.098C127.93 210.824 127.683 210.476 127.5 210.056C127.326 209.635 127.24 209.133 127.24 208.548C127.24 208.045 127.313 207.588 127.459 207.177C127.614 206.766 127.829 206.418 128.103 206.135C128.377 205.843 128.706 205.619 129.09 205.463C129.483 205.299 129.922 205.217 130.406 205.217C130.818 205.217 131.188 205.285 131.517 205.422C131.855 205.559 132.143 205.751 132.38 205.998C132.618 206.245 132.801 206.542 132.929 206.889C133.057 207.236 133.121 207.62 133.121 208.041V208.671ZM131.873 207.808C131.873 207.57 131.841 207.351 131.777 207.15C131.722 206.939 131.631 206.757 131.503 206.601C131.384 206.446 131.229 206.322 131.037 206.231C130.845 206.14 130.612 206.094 130.338 206.094C129.835 206.094 129.424 206.254 129.104 206.574C128.793 206.894 128.601 207.314 128.528 207.835L131.873 207.808ZM135.752 211.756H134.545V205.313H135.477L135.656 206.204C135.957 205.902 136.282 205.664 136.629 205.491C136.976 205.308 137.392 205.217 137.876 205.217C138.333 205.217 138.708 205.313 139 205.505C139.293 205.687 139.512 205.943 139.659 206.272C139.978 205.934 140.33 205.674 140.714 205.491C141.098 205.308 141.523 205.217 141.989 205.217C142.647 205.217 143.141 205.404 143.47 205.779C143.808 206.144 143.977 206.656 143.977 207.314V211.756H142.77V207.533C142.77 207.104 142.679 206.775 142.496 206.546C142.313 206.318 142.012 206.204 141.591 206.204C140.97 206.204 140.39 206.482 139.85 207.04C139.86 207.086 139.864 207.131 139.864 207.177C139.864 207.223 139.864 207.268 139.864 207.314V211.756H138.658V207.533C138.658 207.104 138.566 206.775 138.384 206.546C138.201 206.318 137.899 206.204 137.479 206.204C136.857 206.204 136.282 206.496 135.752 207.081V211.756ZM149.075 211.756V205.313H150.281V211.756H149.075ZM149.678 203.654C149.468 203.654 149.285 203.585 149.13 203.448C148.984 203.302 148.911 203.124 148.911 202.914C148.911 202.703 148.984 202.525 149.13 202.379C149.285 202.233 149.468 202.16 149.678 202.16C149.879 202.16 150.058 202.233 150.213 202.379C150.368 202.525 150.446 202.703 150.446 202.914C150.446 203.124 150.368 203.302 150.213 203.448C150.058 203.585 149.879 203.654 149.678 203.654ZM154.93 211.879C154.638 211.879 154.354 211.838 154.08 211.756C153.815 211.673 153.587 211.564 153.395 211.427V214.909H152.202V205.217H153.203L153.381 206.053C153.628 205.824 153.906 205.628 154.217 205.463C154.528 205.299 154.893 205.217 155.314 205.217C156.173 205.217 156.849 205.491 157.343 206.039C157.836 206.588 158.083 207.373 158.083 208.397C158.083 209 157.992 209.521 157.809 209.96C157.635 210.399 157.398 210.76 157.096 211.043C156.804 211.326 156.465 211.536 156.082 211.673C155.707 211.811 155.323 211.879 154.93 211.879ZM155.053 206.204C154.67 206.204 154.336 206.3 154.053 206.492C153.769 206.674 153.55 206.862 153.395 207.054V210.495C153.605 210.65 153.829 210.764 154.066 210.837C154.304 210.91 154.542 210.947 154.779 210.947C155.026 210.947 155.273 210.906 155.519 210.824C155.766 210.732 155.986 210.586 156.177 210.385C156.369 210.184 156.525 209.923 156.644 209.603C156.762 209.284 156.822 208.891 156.822 208.424C156.822 207.739 156.676 207.2 156.383 206.807C156.1 206.405 155.657 206.204 155.053 206.204ZM163.159 206.519C162.857 206.373 162.583 206.272 162.336 206.217C162.089 206.163 161.843 206.135 161.596 206.135C161.157 206.135 160.833 206.217 160.623 206.382C160.412 206.537 160.307 206.747 160.307 207.012C160.307 207.204 160.38 207.373 160.527 207.52C160.673 207.657 160.979 207.794 161.445 207.931L161.856 208.054C162.469 208.237 162.93 208.475 163.241 208.767C163.561 209.051 163.721 209.439 163.721 209.932C163.721 210.517 163.501 210.988 163.063 211.344C162.633 211.701 162.03 211.879 161.253 211.879C160.842 211.879 160.444 211.843 160.061 211.769C159.686 211.696 159.361 211.596 159.087 211.468L159.375 210.522C159.64 210.65 159.928 210.755 160.239 210.837C160.549 210.91 160.865 210.947 161.185 210.947C161.596 210.947 161.92 210.874 162.158 210.728C162.405 210.581 162.528 210.339 162.528 210.001C162.528 209.709 162.423 209.503 162.213 209.384C162.003 209.256 161.701 209.133 161.308 209.014L160.883 208.877C160.289 208.685 159.846 208.447 159.553 208.164C159.27 207.872 159.128 207.497 159.128 207.04C159.128 206.766 159.188 206.514 159.307 206.286C159.425 206.057 159.585 205.866 159.786 205.71C159.997 205.555 160.243 205.436 160.527 205.354C160.81 205.262 161.121 205.217 161.459 205.217C161.779 205.217 162.108 205.249 162.446 205.313C162.793 205.367 163.122 205.463 163.433 205.6L163.159 206.519ZM169.44 205.313H170.647V211.756H169.701L169.536 210.947H169.482C169.244 211.212 168.947 211.436 168.59 211.619C168.243 211.792 167.836 211.879 167.37 211.879C166.703 211.879 166.159 211.692 165.739 211.317C165.328 210.933 165.122 210.357 165.122 209.59V205.313H166.329V209.439C166.329 209.713 166.361 209.946 166.424 210.138C166.498 210.33 166.589 210.485 166.699 210.604C166.817 210.714 166.955 210.796 167.11 210.851C167.265 210.897 167.434 210.919 167.617 210.919C167.983 210.919 168.312 210.842 168.604 210.686C168.897 210.531 169.175 210.316 169.44 210.042V205.313ZM173.718 211.756H172.512V205.313H173.444L173.622 206.204C173.924 205.902 174.248 205.664 174.596 205.491C174.943 205.308 175.359 205.217 175.843 205.217C176.3 205.217 176.675 205.313 176.967 205.505C177.26 205.687 177.479 205.943 177.625 206.272C177.945 205.934 178.297 205.674 178.681 205.491C179.065 205.308 179.49 205.217 179.956 205.217C180.614 205.217 181.107 205.404 181.436 205.779C181.775 206.144 181.944 206.656 181.944 207.314V211.756H180.737V207.533C180.737 207.104 180.646 206.775 180.463 206.546C180.28 206.318 179.979 206.204 179.558 206.204C178.937 206.204 178.357 206.482 177.817 207.04C177.826 207.086 177.831 207.131 177.831 207.177C177.831 207.223 177.831 207.268 177.831 207.314V211.756H176.625V207.533C176.625 207.104 176.533 206.775 176.351 206.546C176.168 206.318 175.866 206.204 175.446 206.204C174.824 206.204 174.248 206.496 173.718 207.081V211.756ZM191.127 202.022H192.334V211.756H191.319L191.168 211.043H191.127C190.844 211.335 190.556 211.55 190.264 211.687C189.98 211.815 189.619 211.879 189.181 211.879C188.833 211.879 188.495 211.811 188.166 211.673C187.846 211.536 187.558 211.331 187.302 211.057C187.047 210.782 186.841 210.44 186.686 210.028C186.53 209.608 186.452 209.114 186.452 208.548C186.452 208.045 186.516 207.588 186.644 207.177C186.782 206.766 186.973 206.414 187.22 206.121C187.467 205.829 187.769 205.605 188.125 205.45C188.481 205.294 188.888 205.217 189.345 205.217C189.683 205.217 190.003 205.271 190.305 205.381C190.615 205.482 190.89 205.637 191.127 205.847V202.022ZM191.127 206.862C190.698 206.377 190.19 206.135 189.606 206.135C189.359 206.135 189.117 206.181 188.879 206.272C188.65 206.354 188.445 206.492 188.262 206.683C188.088 206.875 187.947 207.122 187.837 207.424C187.727 207.725 187.673 208.086 187.673 208.507C187.673 208.945 187.723 209.32 187.823 209.631C187.924 209.932 188.056 210.184 188.221 210.385C188.395 210.577 188.586 210.718 188.797 210.81C189.016 210.901 189.235 210.947 189.455 210.947C190.14 210.947 190.698 210.65 191.127 210.056V206.862ZM200.108 208.466C200.108 209.005 200.026 209.489 199.862 209.919C199.697 210.339 199.469 210.696 199.176 210.988C198.893 211.28 198.559 211.504 198.175 211.66C197.791 211.806 197.376 211.879 196.928 211.879C196.48 211.879 196.064 211.811 195.68 211.673C195.306 211.527 194.977 211.317 194.693 211.043C194.419 210.76 194.2 210.417 194.035 210.015C193.88 209.603 193.802 209.133 193.802 208.603C193.802 208.063 193.884 207.584 194.049 207.163C194.213 206.743 194.437 206.391 194.721 206.108C195.013 205.815 195.351 205.596 195.735 205.45C196.119 205.294 196.535 205.217 196.983 205.217C197.43 205.217 197.842 205.285 198.216 205.422C198.6 205.559 198.929 205.765 199.203 206.039C199.487 206.313 199.706 206.656 199.862 207.067C200.026 207.469 200.108 207.936 200.108 208.466ZM198.847 208.534C198.847 208.105 198.792 207.739 198.683 207.437C198.573 207.136 198.427 206.889 198.244 206.697C198.07 206.505 197.869 206.368 197.641 206.286C197.412 206.195 197.179 206.149 196.942 206.149C196.704 206.149 196.471 206.185 196.242 206.258C196.014 206.332 195.813 206.46 195.639 206.642C195.466 206.825 195.324 207.072 195.214 207.383C195.114 207.684 195.063 208.068 195.063 208.534C195.063 208.964 195.118 209.334 195.228 209.645C195.338 209.946 195.479 210.193 195.653 210.385C195.836 210.577 196.041 210.718 196.27 210.81C196.498 210.901 196.731 210.947 196.969 210.947C197.207 210.947 197.44 210.91 197.668 210.837C197.897 210.755 198.098 210.622 198.271 210.44C198.445 210.248 198.582 210.001 198.683 209.699C198.792 209.389 198.847 209 198.847 208.534ZM201.631 211.756V202.022H202.81V211.756H201.631ZM210.644 208.466C210.644 209.005 210.562 209.489 210.397 209.919C210.233 210.339 210.004 210.696 209.712 210.988C209.429 211.28 209.095 211.504 208.711 211.66C208.327 211.806 207.912 211.879 207.464 211.879C207.016 211.879 206.6 211.811 206.216 211.673C205.842 211.527 205.513 211.317 205.229 211.043C204.955 210.76 204.736 210.417 204.571 210.015C204.416 209.603 204.338 209.133 204.338 208.603C204.338 208.063 204.42 207.584 204.585 207.163C204.749 206.743 204.973 206.391 205.257 206.108C205.549 205.815 205.887 205.596 206.271 205.45C206.655 205.294 207.071 205.217 207.519 205.217C207.966 205.217 208.378 205.285 208.752 205.422C209.136 205.559 209.465 205.765 209.739 206.039C210.023 206.313 210.242 206.656 210.397 207.067C210.562 207.469 210.644 207.936 210.644 208.466ZM209.383 208.534C209.383 208.105 209.328 207.739 209.218 207.437C209.109 207.136 208.963 206.889 208.78 206.697C208.606 206.505 208.405 206.368 208.177 206.286C207.948 206.195 207.715 206.149 207.477 206.149C207.24 206.149 207.007 206.185 206.778 206.258C206.55 206.332 206.349 206.46 206.175 206.642C206.002 206.825 205.86 207.072 205.75 207.383C205.65 207.684 205.599 208.068 205.599 208.534C205.599 208.964 205.654 209.334 205.764 209.645C205.874 209.946 206.015 210.193 206.189 210.385C206.372 210.577 206.577 210.718 206.806 210.81C207.034 210.901 207.267 210.947 207.505 210.947C207.743 210.947 207.976 210.91 208.204 210.837C208.433 210.755 208.634 210.622 208.807 210.44C208.981 210.248 209.118 210.001 209.218 209.699C209.328 209.389 209.383 209 209.383 208.534ZM212.085 211.756V205.313H212.99L213.195 206.601C213.351 206.19 213.606 205.856 213.963 205.6C214.319 205.345 214.731 205.217 215.197 205.217C215.434 205.217 215.631 205.235 215.786 205.271C215.942 205.308 216.083 205.354 216.211 205.409L215.978 206.464C215.868 206.409 215.745 206.364 215.608 206.327C215.48 206.29 215.325 206.272 215.142 206.272C214.877 206.272 214.63 206.318 214.402 206.409C214.182 206.501 213.986 206.638 213.812 206.821C213.648 207.003 213.515 207.232 213.415 207.506C213.323 207.771 213.277 208.077 213.277 208.424V211.756H212.085ZM223.871 206.519C223.569 206.373 223.295 206.272 223.048 206.217C222.802 206.163 222.555 206.135 222.308 206.135C221.869 206.135 221.545 206.217 221.335 206.382C221.125 206.537 221.019 206.747 221.019 207.012C221.019 207.204 221.093 207.373 221.239 207.52C221.385 207.657 221.691 207.794 222.157 207.931L222.569 208.054C223.181 208.237 223.642 208.475 223.953 208.767C224.273 209.051 224.433 209.439 224.433 209.932C224.433 210.517 224.214 210.988 223.775 211.344C223.345 211.701 222.742 211.879 221.965 211.879C221.554 211.879 221.157 211.843 220.773 211.769C220.398 211.696 220.074 211.596 219.799 211.468L220.087 210.522C220.352 210.65 220.64 210.755 220.951 210.837C221.262 210.91 221.577 210.947 221.897 210.947C222.308 210.947 222.633 210.874 222.87 210.728C223.117 210.581 223.24 210.339 223.24 210.001C223.24 209.709 223.135 209.503 222.925 209.384C222.715 209.256 222.413 209.133 222.02 209.014L221.595 208.877C221.001 208.685 220.558 208.447 220.266 208.164C219.982 207.872 219.841 207.497 219.841 207.04C219.841 206.766 219.9 206.514 220.019 206.286C220.138 206.057 220.298 205.866 220.499 205.71C220.709 205.555 220.956 205.436 221.239 205.354C221.522 205.262 221.833 205.217 222.171 205.217C222.491 205.217 222.82 205.249 223.158 205.313C223.505 205.367 223.834 205.463 224.145 205.6L223.871 206.519ZM226.026 211.756V205.313H227.233V211.756H226.026ZM226.63 203.654C226.419 203.654 226.237 203.585 226.081 203.448C225.935 203.302 225.862 203.124 225.862 202.914C225.862 202.703 225.935 202.525 226.081 202.379C226.237 202.233 226.419 202.16 226.63 202.16C226.831 202.16 227.009 202.233 227.164 202.379C227.32 202.525 227.397 202.703 227.397 202.914C227.397 203.124 227.32 203.302 227.164 203.448C227.009 203.585 226.831 203.654 226.63 203.654ZM232.594 206.217H230.702V209.96C230.702 210.28 230.78 210.495 230.935 210.604C231.1 210.714 231.31 210.769 231.566 210.769C231.749 210.769 231.95 210.75 232.169 210.714C232.388 210.668 232.58 210.618 232.745 210.563L232.937 211.482C232.754 211.555 232.521 211.619 232.238 211.673C231.954 211.728 231.657 211.756 231.347 211.756C230.707 211.756 230.241 211.619 229.948 211.344C229.656 211.061 229.51 210.654 229.51 210.124V206.217H228.55V205.313H229.51V203.256H230.702V205.313H232.594V206.217ZM237.309 205.888C237.528 205.779 237.734 205.683 237.926 205.6C238.118 205.509 238.31 205.436 238.502 205.381C238.694 205.326 238.89 205.285 239.091 205.258C239.292 205.23 239.512 205.217 239.749 205.217C240.106 205.217 240.43 205.258 240.723 205.34C241.024 205.413 241.28 205.541 241.49 205.724C241.71 205.907 241.879 206.149 241.997 206.45C242.116 206.743 242.176 207.113 242.176 207.561V211.756H241.175L241.024 211.043H240.997C240.713 211.344 240.403 211.559 240.065 211.687C239.726 211.815 239.352 211.879 238.94 211.879C238.63 211.879 238.342 211.838 238.077 211.756C237.821 211.664 237.597 211.541 237.405 211.386C237.213 211.221 237.062 211.025 236.953 210.796C236.852 210.568 236.802 210.312 236.802 210.028C236.802 209.352 237.067 208.84 237.597 208.493C238.136 208.137 238.844 207.958 239.722 207.958H240.956V207.41C240.956 206.944 240.837 206.629 240.599 206.464C240.362 206.29 240.042 206.204 239.64 206.204C239.402 206.204 239.128 206.245 238.817 206.327C238.515 206.4 238.168 206.546 237.775 206.766L237.309 205.888ZM240.969 208.781L239.955 208.808C239.269 208.827 238.781 208.95 238.488 209.178C238.205 209.398 238.063 209.667 238.063 209.987C238.063 210.179 238.095 210.344 238.159 210.481C238.223 210.609 238.305 210.709 238.406 210.782C238.515 210.856 238.639 210.91 238.776 210.947C238.922 210.974 239.073 210.988 239.228 210.988C239.53 210.988 239.836 210.919 240.147 210.782C240.458 210.636 240.732 210.408 240.969 210.097V208.781ZM245.154 211.756H243.948V205.313H244.88L245.058 206.204C245.36 205.902 245.684 205.664 246.031 205.491C246.379 205.308 246.795 205.217 247.279 205.217C247.736 205.217 248.111 205.313 248.403 205.505C248.695 205.687 248.915 205.943 249.061 206.272C249.381 205.934 249.733 205.674 250.117 205.491C250.5 205.308 250.925 205.217 251.392 205.217C252.05 205.217 252.543 205.404 252.872 205.779C253.21 206.144 253.379 206.656 253.379 207.314V211.756H252.173V207.533C252.173 207.104 252.082 206.775 251.899 206.546C251.716 206.318 251.414 206.204 250.994 206.204C250.373 206.204 249.792 206.482 249.253 207.04C249.262 207.086 249.267 207.131 249.267 207.177C249.267 207.223 249.267 207.268 249.267 207.314V211.756H248.06V207.533C248.06 207.104 247.969 206.775 247.786 206.546C247.603 206.318 247.302 206.204 246.881 206.204C246.26 206.204 245.684 206.496 245.154 207.081V211.756ZM260.73 208.671H256.11V208.726C256.11 209.439 256.302 209.987 256.686 210.371C257.079 210.755 257.609 210.947 258.276 210.947C258.624 210.947 258.93 210.919 259.195 210.865C259.469 210.81 259.766 210.718 260.086 210.59L260.333 211.482C260.068 211.6 259.752 211.696 259.387 211.769C259.03 211.843 258.646 211.879 258.235 211.879C257.769 211.879 257.33 211.815 256.919 211.687C256.517 211.559 256.161 211.363 255.85 211.098C255.539 210.824 255.292 210.476 255.11 210.056C254.936 209.635 254.849 209.133 254.849 208.548C254.849 208.045 254.922 207.588 255.068 207.177C255.224 206.766 255.439 206.418 255.713 206.135C255.987 205.843 256.316 205.619 256.7 205.463C257.093 205.299 257.532 205.217 258.016 205.217C258.427 205.217 258.797 205.285 259.126 205.422C259.464 205.559 259.752 205.751 259.99 205.998C260.228 206.245 260.41 206.542 260.538 206.889C260.666 207.236 260.73 207.62 260.73 208.041V208.671ZM259.483 207.808C259.483 207.57 259.451 207.351 259.387 207.15C259.332 206.939 259.241 206.757 259.113 206.601C258.994 206.446 258.838 206.322 258.646 206.231C258.455 206.14 258.222 206.094 257.947 206.094C257.445 206.094 257.033 206.254 256.714 206.574C256.403 206.894 256.211 207.314 256.138 207.835L259.483 207.808ZM265.541 206.217H263.649V209.96C263.649 210.28 263.727 210.495 263.882 210.604C264.046 210.714 264.257 210.769 264.513 210.769C264.695 210.769 264.896 210.75 265.116 210.714C265.335 210.668 265.527 210.618 265.692 210.563L265.883 211.482C265.701 211.555 265.468 211.619 265.184 211.673C264.901 211.728 264.604 211.756 264.293 211.756C263.653 211.756 263.187 211.619 262.895 211.344C262.602 211.061 262.456 210.654 262.456 210.124V206.217H261.497V205.313H262.456V203.256H263.649V205.313H265.541V206.217ZM267.734 211.879C267.497 211.852 267.319 211.751 267.2 211.578C267.081 211.404 267.022 211.212 267.022 211.002C267.022 210.782 267.095 210.586 267.241 210.412C267.396 210.239 267.611 210.152 267.885 210.152C267.995 210.152 268.105 210.17 268.214 210.207C268.333 210.234 268.438 210.298 268.53 210.399C268.63 210.49 268.712 210.622 268.776 210.796C268.84 210.961 268.872 211.18 268.872 211.454C268.872 211.948 268.731 212.4 268.447 212.811C268.164 213.223 267.803 213.547 267.364 213.785L266.967 213.236C267.204 213.108 267.415 212.935 267.597 212.715C267.789 212.505 267.917 212.24 267.981 211.92L267.734 211.879ZM102.701 231.947C102.993 231.947 103.249 231.915 103.469 231.851C103.688 231.787 103.903 231.705 104.113 231.604L104.374 232.509C103.88 232.756 103.291 232.879 102.605 232.879C102.139 232.879 101.7 232.811 101.289 232.673C100.887 232.536 100.53 232.331 100.22 232.057C99.9181 231.773 99.6805 231.426 99.5069 231.015C99.3332 230.594 99.2464 230.105 99.2464 229.548C99.2464 229.036 99.3287 228.575 99.4932 228.163C99.6577 227.752 99.8862 227.405 100.179 227.121C100.471 226.829 100.823 226.605 101.234 226.45C101.645 226.294 102.098 226.217 102.591 226.217C102.875 226.217 103.149 226.239 103.414 226.285C103.688 226.322 103.999 226.418 104.346 226.573L104.072 227.492C103.652 227.254 103.199 227.135 102.715 227.135C102.048 227.135 101.508 227.345 101.097 227.766C100.686 228.177 100.48 228.757 100.48 229.507C100.48 229.973 100.544 230.361 100.672 230.672C100.8 230.983 100.969 231.234 101.179 231.426C101.39 231.609 101.627 231.741 101.892 231.824C102.157 231.906 102.427 231.947 102.701 231.947ZM111.202 229.466C111.202 230.005 111.12 230.489 110.955 230.919C110.791 231.339 110.562 231.696 110.27 231.988C109.986 232.28 109.653 232.504 109.269 232.66C108.885 232.806 108.469 232.879 108.022 232.879C107.574 232.879 107.158 232.811 106.774 232.673C106.399 232.527 106.07 232.317 105.787 232.043C105.513 231.76 105.293 231.417 105.129 231.015C104.974 230.603 104.896 230.133 104.896 229.603C104.896 229.063 104.978 228.584 105.143 228.163C105.307 227.743 105.531 227.391 105.814 227.108C106.107 226.815 106.445 226.596 106.829 226.45C107.213 226.294 107.629 226.217 108.076 226.217C108.524 226.217 108.935 226.285 109.31 226.422C109.694 226.559 110.023 226.765 110.297 227.039C110.581 227.313 110.8 227.656 110.955 228.067C111.12 228.469 111.202 228.936 111.202 229.466ZM109.941 229.534C109.941 229.105 109.886 228.739 109.776 228.437C109.667 228.136 109.52 227.889 109.338 227.697C109.164 227.505 108.963 227.368 108.734 227.286C108.506 227.195 108.273 227.149 108.035 227.149C107.798 227.149 107.565 227.185 107.336 227.258C107.108 227.332 106.907 227.46 106.733 227.642C106.559 227.825 106.418 228.072 106.308 228.383C106.207 228.684 106.157 229.068 106.157 229.534C106.157 229.964 106.212 230.334 106.322 230.645C106.431 230.946 106.573 231.193 106.747 231.385C106.929 231.577 107.135 231.718 107.364 231.81C107.592 231.901 107.825 231.947 108.063 231.947C108.3 231.947 108.533 231.91 108.762 231.837C108.99 231.755 109.191 231.622 109.365 231.44C109.539 231.248 109.676 231.001 109.776 230.699C109.886 230.389 109.941 230 109.941 229.534ZM113.876 232.756H112.67V226.313H113.616L113.794 227.204C114.114 226.884 114.448 226.642 114.795 226.477C115.151 226.303 115.558 226.217 116.015 226.217C116.673 226.217 117.189 226.404 117.564 226.779C117.939 227.144 118.126 227.656 118.126 228.314V232.756H116.92V228.492C116.92 228.099 116.815 227.789 116.604 227.56C116.403 227.322 116.093 227.204 115.672 227.204C115.032 227.204 114.434 227.492 113.876 228.067V232.756ZM123.612 227.519C123.31 227.373 123.036 227.272 122.79 227.217C122.543 227.163 122.296 227.135 122.049 227.135C121.611 227.135 121.286 227.217 121.076 227.382C120.866 227.537 120.761 227.747 120.761 228.012C120.761 228.204 120.834 228.373 120.98 228.52C121.126 228.657 121.432 228.794 121.898 228.931L122.31 229.054C122.922 229.237 123.384 229.475 123.694 229.767C124.014 230.051 124.174 230.439 124.174 230.932C124.174 231.517 123.955 231.988 123.516 232.344C123.087 232.701 122.483 232.879 121.707 232.879C121.295 232.879 120.898 232.843 120.514 232.769C120.139 232.696 119.815 232.596 119.541 232.468L119.828 231.522C120.093 231.65 120.381 231.755 120.692 231.837C121.003 231.91 121.318 231.947 121.638 231.947C122.049 231.947 122.374 231.874 122.611 231.728C122.858 231.581 122.981 231.339 122.981 231.001C122.981 230.709 122.876 230.503 122.666 230.384C122.456 230.256 122.154 230.133 121.761 230.014L121.336 229.877C120.742 229.685 120.299 229.447 120.007 229.164C119.723 228.872 119.582 228.497 119.582 228.04C119.582 227.766 119.641 227.514 119.76 227.286C119.879 227.057 120.039 226.866 120.24 226.71C120.45 226.555 120.697 226.436 120.98 226.354C121.263 226.262 121.574 226.217 121.912 226.217C122.232 226.217 122.561 226.249 122.899 226.313C123.247 226.367 123.576 226.463 123.886 226.6L123.612 227.519ZM130.992 229.671H126.372V229.726C126.372 230.439 126.564 230.987 126.948 231.371C127.341 231.755 127.871 231.947 128.538 231.947C128.886 231.947 129.192 231.919 129.457 231.865C129.731 231.81 130.028 231.718 130.348 231.59L130.595 232.482C130.33 232.6 130.014 232.696 129.649 232.769C129.292 232.843 128.908 232.879 128.497 232.879C128.031 232.879 127.592 232.815 127.181 232.687C126.779 232.559 126.423 232.363 126.112 232.098C125.801 231.824 125.554 231.476 125.372 231.056C125.198 230.635 125.111 230.133 125.111 229.548C125.111 229.045 125.184 228.588 125.33 228.177C125.486 227.766 125.701 227.418 125.975 227.135C126.249 226.843 126.578 226.619 126.962 226.463C127.355 226.299 127.793 226.217 128.278 226.217C128.689 226.217 129.059 226.285 129.388 226.422C129.726 226.559 130.014 226.751 130.252 226.998C130.489 227.245 130.672 227.542 130.8 227.889C130.928 228.236 130.992 228.62 130.992 229.041V229.671ZM129.745 228.808C129.745 228.57 129.713 228.351 129.649 228.15C129.594 227.939 129.502 227.757 129.374 227.601C129.256 227.446 129.1 227.322 128.908 227.231C128.716 227.14 128.483 227.094 128.209 227.094C127.707 227.094 127.295 227.254 126.975 227.574C126.665 227.894 126.473 228.314 126.4 228.835L129.745 228.808ZM135.474 231.947C135.766 231.947 136.022 231.915 136.241 231.851C136.461 231.787 136.675 231.705 136.886 231.604L137.146 232.509C136.653 232.756 136.063 232.879 135.378 232.879C134.912 232.879 134.473 232.811 134.062 232.673C133.659 232.536 133.303 232.331 132.992 232.057C132.691 231.773 132.453 231.426 132.279 231.015C132.106 230.594 132.019 230.105 132.019 229.548C132.019 229.036 132.101 228.575 132.266 228.163C132.43 227.752 132.659 227.405 132.951 227.121C133.244 226.829 133.595 226.605 134.007 226.45C134.418 226.294 134.87 226.217 135.364 226.217C135.647 226.217 135.921 226.239 136.186 226.285C136.461 226.322 136.771 226.418 137.119 226.573L136.844 227.492C136.424 227.254 135.972 227.135 135.487 227.135C134.82 227.135 134.281 227.345 133.87 227.766C133.458 228.177 133.253 228.757 133.253 229.507C133.253 229.973 133.317 230.361 133.445 230.672C133.573 230.983 133.742 231.234 133.952 231.426C134.162 231.609 134.4 231.741 134.665 231.824C134.93 231.906 135.199 231.947 135.474 231.947ZM141.934 227.217H140.042V230.96C140.042 231.28 140.12 231.495 140.275 231.604C140.44 231.714 140.65 231.769 140.906 231.769C141.089 231.769 141.29 231.75 141.509 231.714C141.728 231.668 141.92 231.618 142.085 231.563L142.277 232.482C142.094 232.555 141.861 232.619 141.578 232.673C141.294 232.728 140.997 232.756 140.687 232.756C140.047 232.756 139.581 232.619 139.288 232.344C138.996 232.061 138.85 231.654 138.85 231.124V227.217H137.89V226.313H138.85V224.256H140.042V226.313H141.934V227.217ZM149.025 229.671H144.405V229.726C144.405 230.439 144.597 230.987 144.981 231.371C145.374 231.755 145.904 231.947 146.571 231.947C146.918 231.947 147.225 231.919 147.49 231.865C147.764 231.81 148.061 231.718 148.381 231.59L148.627 232.482C148.362 232.6 148.047 232.696 147.682 232.769C147.325 232.843 146.941 232.879 146.53 232.879C146.064 232.879 145.625 232.815 145.214 232.687C144.812 232.559 144.455 232.363 144.145 232.098C143.834 231.824 143.587 231.476 143.404 231.056C143.231 230.635 143.144 230.133 143.144 229.548C143.144 229.045 143.217 228.588 143.363 228.177C143.519 227.766 143.733 227.418 144.008 227.135C144.282 226.843 144.611 226.619 144.995 226.463C145.388 226.299 145.826 226.217 146.311 226.217C146.722 226.217 147.092 226.285 147.421 226.422C147.759 226.559 148.047 226.751 148.285 226.998C148.522 227.245 148.705 227.542 148.833 227.889C148.961 228.236 149.025 228.62 149.025 229.041V229.671ZM147.778 228.808C147.778 228.57 147.746 228.351 147.682 228.15C147.627 227.939 147.535 227.757 147.407 227.601C147.289 227.446 147.133 227.322 146.941 227.231C146.749 227.14 146.516 227.094 146.242 227.094C145.74 227.094 145.328 227.254 145.008 227.574C144.698 227.894 144.506 228.314 144.433 228.835L147.778 228.808ZM153.836 227.217H151.944V230.96C151.944 231.28 152.021 231.495 152.177 231.604C152.341 231.714 152.551 231.769 152.807 231.769C152.99 231.769 153.191 231.75 153.411 231.714C153.63 231.668 153.822 231.618 153.986 231.563L154.178 232.482C153.995 232.555 153.762 232.619 153.479 232.673C153.196 232.728 152.899 232.756 152.588 232.756C151.948 232.756 151.482 232.619 151.19 232.344C150.897 232.061 150.751 231.654 150.751 231.124V227.217H149.791V226.313H150.751V224.256H151.944V226.313H153.836V227.217ZM159.761 226.313H160.968V232.756H160.022L159.857 231.947H159.802C159.565 232.212 159.268 232.436 158.911 232.619C158.564 232.792 158.157 232.879 157.691 232.879C157.024 232.879 156.48 232.692 156.06 232.317C155.649 231.933 155.443 231.357 155.443 230.59V226.313H156.649V230.439C156.649 230.713 156.681 230.946 156.745 231.138C156.818 231.33 156.91 231.485 157.02 231.604C157.138 231.714 157.275 231.796 157.431 231.851C157.586 231.897 157.755 231.919 157.938 231.919C158.304 231.919 158.633 231.842 158.925 231.686C159.217 231.531 159.496 231.316 159.761 231.042V226.313ZM162.805 232.756V226.313H163.71L163.916 227.601C164.071 227.19 164.327 226.856 164.684 226.6C165.04 226.345 165.451 226.217 165.917 226.217C166.155 226.217 166.351 226.235 166.507 226.271C166.662 226.308 166.804 226.354 166.932 226.409L166.699 227.464C166.589 227.409 166.466 227.364 166.329 227.327C166.201 227.29 166.045 227.272 165.863 227.272C165.598 227.272 165.351 227.318 165.122 227.409C164.903 227.501 164.706 227.638 164.533 227.821C164.368 228.003 164.236 228.232 164.135 228.506C164.044 228.771 163.998 229.077 163.998 229.424V232.756H162.805ZM171.041 226.888C171.26 226.779 171.466 226.683 171.658 226.6C171.85 226.509 172.042 226.436 172.234 226.381C172.426 226.326 172.622 226.285 172.823 226.258C173.024 226.23 173.244 226.217 173.481 226.217C173.838 226.217 174.162 226.258 174.455 226.34C174.756 226.413 175.012 226.541 175.222 226.724C175.442 226.907 175.611 227.149 175.729 227.45C175.848 227.743 175.908 228.113 175.908 228.561V232.756H174.907L174.756 232.043H174.729C174.445 232.344 174.135 232.559 173.796 232.687C173.458 232.815 173.084 232.879 172.672 232.879C172.362 232.879 172.074 232.838 171.809 232.756C171.553 232.664 171.329 232.541 171.137 232.386C170.945 232.221 170.794 232.025 170.685 231.796C170.584 231.568 170.534 231.312 170.534 231.028C170.534 230.352 170.799 229.84 171.329 229.493C171.868 229.137 172.576 228.958 173.454 228.958H174.688V228.41C174.688 227.944 174.569 227.629 174.331 227.464C174.094 227.29 173.774 227.204 173.372 227.204C173.134 227.204 172.86 227.245 172.549 227.327C172.247 227.4 171.9 227.546 171.507 227.766L171.041 226.888ZM174.701 229.781L173.687 229.808C173.001 229.827 172.512 229.95 172.22 230.178C171.937 230.398 171.795 230.667 171.795 230.987C171.795 231.179 171.827 231.344 171.891 231.481C171.955 231.609 172.037 231.709 172.138 231.782C172.247 231.856 172.371 231.91 172.508 231.947C172.654 231.974 172.805 231.988 172.96 231.988C173.262 231.988 173.568 231.919 173.879 231.782C174.189 231.636 174.464 231.408 174.701 231.097V229.781ZM181.957 223.022H183.163V232.756H182.149L181.998 232.043H181.957C181.673 232.335 181.386 232.55 181.093 232.687C180.81 232.815 180.449 232.879 180.01 232.879C179.663 232.879 179.325 232.811 178.996 232.673C178.676 232.536 178.388 232.331 178.132 232.057C177.876 231.782 177.67 231.44 177.515 231.028C177.36 230.608 177.282 230.114 177.282 229.548C177.282 229.045 177.346 228.588 177.474 228.177C177.611 227.766 177.803 227.414 178.05 227.121C178.297 226.829 178.598 226.605 178.955 226.45C179.311 226.294 179.718 226.217 180.175 226.217C180.513 226.217 180.833 226.271 181.134 226.381C181.445 226.482 181.719 226.637 181.957 226.847V223.022ZM181.957 227.862C181.527 227.377 181.02 227.135 180.435 227.135C180.188 227.135 179.946 227.181 179.709 227.272C179.48 227.354 179.274 227.492 179.092 227.683C178.918 227.875 178.776 228.122 178.667 228.424C178.557 228.725 178.502 229.086 178.502 229.507C178.502 229.945 178.552 230.32 178.653 230.631C178.753 230.932 178.886 231.184 179.05 231.385C179.224 231.577 179.416 231.718 179.626 231.81C179.846 231.901 180.065 231.947 180.284 231.947C180.97 231.947 181.527 231.65 181.957 231.056V227.862ZM185.221 232.756V226.313H186.428V232.756H185.221ZM185.824 224.654C185.614 224.654 185.431 224.585 185.276 224.448C185.13 224.302 185.057 224.124 185.057 223.914C185.057 223.703 185.13 223.525 185.276 223.379C185.431 223.233 185.614 223.16 185.824 223.16C186.026 223.16 186.204 223.233 186.359 223.379C186.514 223.525 186.592 223.703 186.592 223.914C186.592 224.124 186.514 224.302 186.359 224.448C186.204 224.585 186.026 224.654 185.824 224.654ZM191.076 232.879C190.784 232.879 190.5 232.838 190.226 232.756C189.961 232.673 189.733 232.564 189.541 232.427V235.909H188.348V226.217H189.349L189.527 227.053C189.774 226.824 190.053 226.628 190.363 226.463C190.674 226.299 191.04 226.217 191.46 226.217C192.319 226.217 192.995 226.491 193.489 227.039C193.982 227.588 194.229 228.373 194.229 229.397C194.229 230 194.138 230.521 193.955 230.96C193.781 231.399 193.544 231.76 193.242 232.043C192.95 232.326 192.612 232.536 192.228 232.673C191.853 232.811 191.469 232.879 191.076 232.879ZM191.2 227.204C190.816 227.204 190.482 227.3 190.199 227.492C189.916 227.674 189.696 227.862 189.541 228.054V231.495C189.751 231.65 189.975 231.764 190.213 231.837C190.45 231.91 190.688 231.947 190.925 231.947C191.172 231.947 191.419 231.906 191.666 231.824C191.912 231.732 192.132 231.586 192.324 231.385C192.516 231.184 192.671 230.923 192.79 230.603C192.909 230.284 192.968 229.891 192.968 229.424C192.968 228.739 192.822 228.2 192.529 227.807C192.246 227.405 191.803 227.204 191.2 227.204ZM195.878 232.756V226.313H197.084V232.756H195.878ZM196.481 224.654C196.271 224.654 196.088 224.585 195.933 224.448C195.786 224.302 195.713 224.124 195.713 223.914C195.713 223.703 195.786 223.525 195.933 223.379C196.088 223.233 196.271 223.16 196.481 223.16C196.682 223.16 196.86 223.233 197.016 223.379C197.171 223.525 197.249 223.703 197.249 223.914C197.249 224.124 197.171 224.302 197.016 224.448C196.86 224.585 196.682 224.654 196.481 224.654ZM202.679 227.519C202.377 227.373 202.103 227.272 201.856 227.217C201.609 227.163 201.363 227.135 201.116 227.135C200.677 227.135 200.353 227.217 200.142 227.382C199.932 227.537 199.827 227.747 199.827 228.012C199.827 228.204 199.9 228.373 200.046 228.52C200.193 228.657 200.499 228.794 200.965 228.931L201.376 229.054C201.989 229.237 202.45 229.475 202.761 229.767C203.081 230.051 203.241 230.439 203.241 230.932C203.241 231.517 203.021 231.988 202.583 232.344C202.153 232.701 201.55 232.879 200.773 232.879C200.362 232.879 199.964 232.843 199.58 232.769C199.206 232.696 198.881 232.596 198.607 232.468L198.895 231.522C199.16 231.65 199.448 231.755 199.759 231.837C200.069 231.91 200.385 231.947 200.704 231.947C201.116 231.947 201.44 231.874 201.678 231.728C201.925 231.581 202.048 231.339 202.048 231.001C202.048 230.709 201.943 230.503 201.733 230.384C201.522 230.256 201.221 230.133 200.828 230.014L200.403 229.877C199.809 229.685 199.366 229.447 199.073 229.164C198.79 228.872 198.648 228.497 198.648 228.04C198.648 227.766 198.708 227.514 198.826 227.286C198.945 227.057 199.105 226.866 199.306 226.71C199.516 226.555 199.763 226.436 200.046 226.354C200.33 226.262 200.641 226.217 200.979 226.217C201.299 226.217 201.628 226.249 201.966 226.313C202.313 226.367 202.642 226.463 202.953 226.6L202.679 227.519ZM207.699 231.947C207.992 231.947 208.247 231.915 208.467 231.851C208.686 231.787 208.901 231.705 209.111 231.604L209.372 232.509C208.878 232.756 208.289 232.879 207.603 232.879C207.137 232.879 206.698 232.811 206.287 232.673C205.885 232.536 205.529 232.331 205.218 232.057C204.916 231.773 204.679 231.426 204.505 231.015C204.331 230.594 204.244 230.105 204.244 229.548C204.244 229.036 204.327 228.575 204.491 228.163C204.656 227.752 204.884 227.405 205.177 227.121C205.469 226.829 205.821 226.605 206.232 226.45C206.643 226.294 207.096 226.217 207.589 226.217C207.873 226.217 208.147 226.239 208.412 226.285C208.686 226.322 208.997 226.418 209.344 226.573L209.07 227.492C208.65 227.254 208.197 227.135 207.713 227.135C207.046 227.135 206.506 227.345 206.095 227.766C205.684 228.177 205.478 228.757 205.478 229.507C205.478 229.973 205.542 230.361 205.67 230.672C205.798 230.983 205.967 231.234 206.177 231.426C206.388 231.609 206.625 231.741 206.89 231.824C207.155 231.906 207.425 231.947 207.699 231.947ZM210.898 232.756V226.313H212.105V232.756H210.898ZM211.502 224.654C211.291 224.654 211.109 224.585 210.953 224.448C210.807 224.302 210.734 224.124 210.734 223.914C210.734 223.703 210.807 223.525 210.953 223.379C211.109 223.233 211.291 223.16 211.502 223.16C211.703 223.16 211.881 223.233 212.036 223.379C212.192 223.525 212.269 223.703 212.269 223.914C212.269 224.124 212.192 224.302 212.036 224.448C211.881 224.585 211.703 224.654 211.502 224.654ZM215.287 232.756H214.08V226.313H215.026L215.204 227.204C215.524 226.884 215.858 226.642 216.205 226.477C216.561 226.303 216.968 226.217 217.425 226.217C218.083 226.217 218.6 226.404 218.974 226.779C219.349 227.144 219.536 227.656 219.536 228.314V232.756H218.33V228.492C218.33 228.099 218.225 227.789 218.015 227.56C217.814 227.322 217.503 227.204 217.082 227.204C216.443 227.204 215.844 227.492 215.287 228.067V232.756ZM221.24 228.451C221.24 228.095 221.304 227.779 221.432 227.505C221.56 227.222 221.738 226.984 221.967 226.792C222.204 226.6 222.483 226.459 222.803 226.367C223.123 226.267 223.47 226.217 223.845 226.217C223.982 226.217 224.115 226.226 224.242 226.244C224.37 226.262 224.498 226.285 224.626 226.313H227.409V227.204H226.984L225.888 227.053C226.061 227.236 226.194 227.446 226.285 227.683C226.386 227.921 226.436 228.172 226.436 228.437C226.436 228.794 226.372 229.114 226.244 229.397C226.116 229.671 225.938 229.904 225.709 230.096C225.481 230.288 225.207 230.434 224.887 230.535C224.567 230.626 224.22 230.672 223.845 230.672C223.562 230.672 223.315 230.654 223.105 230.617C222.894 230.69 222.748 230.786 222.666 230.905C222.584 231.015 222.543 231.134 222.543 231.261C222.543 231.472 222.611 231.613 222.748 231.686C222.894 231.76 223.086 231.796 223.324 231.796H225.024C225.737 231.796 226.281 231.961 226.655 232.29C227.039 232.609 227.231 233.048 227.231 233.606C227.231 233.962 227.153 234.282 226.998 234.565C226.843 234.849 226.619 235.091 226.326 235.292C226.043 235.493 225.696 235.644 225.284 235.744C224.873 235.854 224.412 235.909 223.9 235.909C222.968 235.909 222.223 235.74 221.665 235.402C221.117 235.073 220.843 234.584 220.843 233.935C220.843 233.597 220.948 233.313 221.158 233.085C221.377 232.856 221.661 232.683 222.008 232.564C221.825 232.436 221.688 232.303 221.597 232.166C221.505 232.02 221.46 231.828 221.46 231.59C221.46 231.307 221.542 231.065 221.706 230.864C221.88 230.663 222.113 230.503 222.406 230.384C222.04 230.22 221.752 229.982 221.542 229.671C221.341 229.351 221.24 228.945 221.24 228.451ZM222.707 232.756C222.241 232.966 222.008 233.295 222.008 233.743C222.008 234.547 222.657 234.949 223.955 234.949C224.338 234.949 224.663 234.913 224.928 234.839C225.193 234.766 225.408 234.67 225.572 234.552C225.737 234.433 225.856 234.3 225.929 234.154C226.011 234.008 226.052 233.857 226.052 233.702C226.052 233.318 225.92 233.062 225.654 232.934C225.399 232.815 225.074 232.756 224.681 232.756H222.707ZM225.216 228.479C225.216 227.994 225.088 227.638 224.832 227.409C224.585 227.181 224.256 227.067 223.845 227.067C223.434 227.067 223.1 227.181 222.844 227.409C222.597 227.638 222.474 227.976 222.474 228.424C222.474 228.899 222.597 229.251 222.844 229.479C223.1 229.699 223.434 229.808 223.845 229.808C224.256 229.808 224.585 229.699 224.832 229.479C225.088 229.26 225.216 228.926 225.216 228.479ZM237.275 229.671H232.655V229.726C232.655 230.439 232.847 230.987 233.231 231.371C233.624 231.755 234.154 231.947 234.821 231.947C235.169 231.947 235.475 231.919 235.74 231.865C236.014 231.81 236.311 231.718 236.631 231.59L236.878 232.482C236.613 232.6 236.297 232.696 235.932 232.769C235.575 232.843 235.192 232.879 234.78 232.879C234.314 232.879 233.876 232.815 233.464 232.687C233.062 232.559 232.706 232.363 232.395 232.098C232.084 231.824 231.838 231.476 231.655 231.056C231.481 230.635 231.394 230.133 231.394 229.548C231.394 229.045 231.467 228.588 231.614 228.177C231.769 227.766 231.984 227.418 232.258 227.135C232.532 226.843 232.861 226.619 233.245 226.463C233.638 226.299 234.077 226.217 234.561 226.217C234.972 226.217 235.342 226.285 235.671 226.422C236.01 226.559 236.297 226.751 236.535 226.998C236.773 227.245 236.955 227.542 237.083 227.889C237.211 228.236 237.275 228.62 237.275 229.041V229.671ZM236.028 228.808C236.028 228.57 235.996 228.351 235.932 228.15C235.877 227.939 235.786 227.757 235.658 227.601C235.539 227.446 235.384 227.322 235.192 227.231C235 227.14 234.767 227.094 234.492 227.094C233.99 227.094 233.579 227.254 233.259 227.574C232.948 227.894 232.756 228.314 232.683 228.835L236.028 228.808ZM238.755 232.756V223.022H239.934V232.756H238.755ZM242.051 232.756V226.313H243.258V232.756H242.051ZM242.654 224.654C242.444 224.654 242.261 224.585 242.106 224.448C241.96 224.302 241.887 224.124 241.887 223.914C241.887 223.703 241.96 223.525 242.106 223.379C242.261 223.233 242.444 223.16 242.654 223.16C242.855 223.16 243.034 223.233 243.189 223.379C243.344 223.525 243.422 223.703 243.422 223.914C243.422 224.124 243.344 224.302 243.189 224.448C243.034 224.585 242.855 224.654 242.654 224.654ZM248.619 227.217H246.727V230.96C246.727 231.28 246.805 231.495 246.96 231.604C247.125 231.714 247.335 231.769 247.591 231.769C247.774 231.769 247.975 231.75 248.194 231.714C248.413 231.668 248.605 231.618 248.77 231.563L248.962 232.482C248.779 232.555 248.546 232.619 248.263 232.673C247.979 232.728 247.682 232.756 247.371 232.756C246.732 232.756 246.266 232.619 245.973 232.344C245.681 232.061 245.534 231.654 245.534 231.124V227.217H244.575V226.313H245.534V224.256H246.727V226.313H248.619V227.217ZM250.168 232.015C250.168 231.778 250.251 231.577 250.415 231.412C250.58 231.248 250.776 231.166 251.005 231.166C251.233 231.166 251.425 231.248 251.58 231.412C251.745 231.577 251.827 231.778 251.827 232.015C251.827 232.28 251.745 232.491 251.58 232.646C251.425 232.801 251.233 232.879 251.005 232.879C250.776 232.879 250.58 232.801 250.415 232.646C250.251 232.491 250.168 232.28 250.168 232.015ZM259.539 223.996C260.124 223.996 260.663 224.092 261.157 224.284C261.651 224.466 262.076 224.745 262.432 225.12C262.797 225.485 263.081 225.947 263.282 226.505C263.483 227.053 263.583 227.697 263.583 228.437C263.583 229.159 263.478 229.799 263.268 230.357C263.058 230.905 262.77 231.367 262.405 231.741C262.039 232.116 261.605 232.399 261.102 232.591C260.609 232.783 260.069 232.879 259.485 232.879C258.9 232.879 258.36 232.788 257.867 232.605C257.373 232.413 256.944 232.134 256.578 231.769C256.222 231.394 255.943 230.932 255.742 230.384C255.541 229.827 255.44 229.178 255.44 228.437C255.44 227.715 255.546 227.08 255.756 226.532C255.966 225.974 256.254 225.508 256.619 225.134C256.985 224.759 257.415 224.476 257.908 224.284C258.411 224.092 258.954 223.996 259.539 223.996ZM256.811 228.437C256.811 229.022 256.88 229.53 257.017 229.959C257.163 230.389 257.36 230.745 257.606 231.028C257.853 231.312 258.141 231.522 258.47 231.659C258.808 231.796 259.165 231.865 259.539 231.865C259.914 231.865 260.261 231.796 260.581 231.659C260.91 231.522 261.194 231.312 261.431 231.028C261.678 230.745 261.87 230.389 262.007 229.959C262.144 229.53 262.213 229.022 262.213 228.437C262.213 227.834 262.139 227.318 261.993 226.888C261.856 226.459 261.664 226.107 261.417 225.833C261.171 225.549 260.878 225.344 260.54 225.216C260.211 225.079 259.859 225.01 259.485 225.01C259.11 225.01 258.758 225.079 258.429 225.216C258.1 225.353 257.817 225.563 257.579 225.846C257.341 226.13 257.154 226.486 257.017 226.916C256.88 227.345 256.811 227.853 256.811 228.437ZM265.113 232.756V226.313H266.017L266.223 227.601C266.378 227.19 266.634 226.856 266.991 226.6C267.347 226.345 267.758 226.217 268.225 226.217C268.462 226.217 268.659 226.235 268.814 226.271C268.969 226.308 269.111 226.354 269.239 226.409L269.006 227.464C268.896 227.409 268.773 227.364 268.636 227.327C268.508 227.29 268.352 227.272 268.17 227.272C267.905 227.272 267.658 227.318 267.429 227.409C267.21 227.501 267.014 227.638 266.84 227.821C266.675 228.003 266.543 228.232 266.442 228.506C266.351 228.771 266.305 229.077 266.305 229.424V232.756H265.113ZM272.883 231.947C273.175 231.947 273.431 231.915 273.65 231.851C273.87 231.787 274.085 231.705 274.295 231.604L274.555 232.509C274.062 232.756 273.472 232.879 272.787 232.879C272.321 232.879 271.882 232.811 271.471 232.673C271.069 232.536 270.712 232.331 270.401 232.057C270.1 231.773 269.862 231.426 269.689 231.015C269.515 230.594 269.428 230.105 269.428 229.548C269.428 229.036 269.51 228.575 269.675 228.163C269.839 227.752 270.068 227.405 270.36 227.121C270.653 226.829 271.005 226.605 271.416 226.45C271.827 226.294 272.28 226.217 272.773 226.217C273.056 226.217 273.331 226.239 273.596 226.285C273.87 226.322 274.18 226.418 274.528 226.573L274.254 227.492C273.833 227.254 273.381 227.135 272.896 227.135C272.229 227.135 271.69 227.345 271.279 227.766C270.868 228.177 270.662 228.757 270.662 229.507C270.662 229.973 270.726 230.361 270.854 230.672C270.982 230.983 271.151 231.234 271.361 231.426C271.571 231.609 271.809 231.741 272.074 231.824C272.339 231.906 272.609 231.947 272.883 231.947ZM276.082 232.756V226.313H277.289V232.756H276.082ZM276.685 224.654C276.475 224.654 276.292 224.585 276.137 224.448C275.991 224.302 275.918 224.124 275.918 223.914C275.918 223.703 275.991 223.525 276.137 223.379C276.292 223.233 276.475 223.16 276.685 223.16C276.886 223.16 277.065 223.233 277.22 223.379C277.375 223.525 277.453 223.703 277.453 223.914C277.453 224.124 277.375 224.302 277.22 224.448C277.065 224.585 276.886 224.654 276.685 224.654ZM105.652 243.954C105.907 243.954 106.173 243.99 106.447 244.064C106.73 244.137 106.981 244.228 107.201 244.338L106.954 245.174C106.771 245.101 106.597 245.046 106.433 245.01C106.268 244.964 106.095 244.941 105.912 244.941C105.473 244.941 105.158 245.064 104.966 245.311C104.783 245.558 104.692 245.978 104.692 246.572V247.313H106.652V248.217H104.692V253.756H103.499V248.217H102.553V247.313H103.499V246.175C103.499 245.462 103.682 244.914 104.048 244.53C104.422 244.146 104.957 243.954 105.652 243.954ZM107.578 247.888C107.797 247.779 108.003 247.683 108.195 247.6C108.386 247.509 108.578 247.436 108.77 247.381C108.962 247.326 109.159 247.285 109.36 247.258C109.561 247.23 109.78 247.217 110.018 247.217C110.374 247.217 110.699 247.258 110.991 247.34C111.293 247.413 111.549 247.541 111.759 247.724C111.978 247.907 112.147 248.149 112.266 248.45C112.385 248.743 112.444 249.113 112.444 249.561V253.756H111.444L111.293 253.043H111.265C110.982 253.344 110.671 253.559 110.333 253.687C109.995 253.815 109.62 253.879 109.209 253.879C108.898 253.879 108.61 253.838 108.345 253.756C108.089 253.664 107.866 253.541 107.674 253.386C107.482 253.221 107.331 253.025 107.221 252.796C107.121 252.568 107.07 252.312 107.07 252.028C107.07 251.352 107.335 250.84 107.866 250.493C108.405 250.137 109.113 249.958 109.99 249.958H111.224V249.41C111.224 248.944 111.105 248.629 110.868 248.464C110.63 248.29 110.31 248.204 109.908 248.204C109.671 248.204 109.396 248.245 109.086 248.327C108.784 248.4 108.437 248.546 108.044 248.766L107.578 247.888ZM111.238 250.781L110.223 250.808C109.538 250.827 109.049 250.95 108.757 251.178C108.473 251.398 108.332 251.667 108.332 251.987C108.332 252.179 108.364 252.344 108.428 252.481C108.492 252.609 108.574 252.709 108.674 252.782C108.784 252.856 108.907 252.91 109.044 252.947C109.191 252.974 109.342 252.988 109.497 252.988C109.798 252.988 110.105 252.919 110.415 252.782C110.726 252.636 111 252.408 111.238 252.097V250.781ZM117.273 252.947C117.566 252.947 117.822 252.915 118.041 252.851C118.26 252.787 118.475 252.705 118.685 252.604L118.946 253.509C118.452 253.756 117.863 253.879 117.177 253.879C116.711 253.879 116.273 253.811 115.861 253.673C115.459 253.536 115.103 253.331 114.792 253.057C114.49 252.773 114.253 252.426 114.079 252.015C113.906 251.594 113.819 251.105 113.819 250.548C113.819 250.036 113.901 249.575 114.065 249.163C114.23 248.752 114.458 248.405 114.751 248.121C115.043 247.829 115.395 247.605 115.806 247.45C116.218 247.294 116.67 247.217 117.164 247.217C117.447 247.217 117.721 247.239 117.986 247.285C118.26 247.322 118.571 247.418 118.918 247.573L118.644 248.492C118.224 248.254 117.771 248.135 117.287 248.135C116.62 248.135 116.081 248.345 115.669 248.766C115.258 249.177 115.052 249.757 115.052 250.507C115.052 250.973 115.116 251.361 115.244 251.672C115.372 251.983 115.541 252.234 115.752 252.426C115.962 252.609 116.199 252.741 116.464 252.824C116.73 252.906 116.999 252.947 117.273 252.947ZM120.473 253.756V247.313H121.679V253.756H120.473ZM121.076 245.654C120.866 245.654 120.683 245.585 120.528 245.448C120.381 245.302 120.308 245.124 120.308 244.914C120.308 244.703 120.381 244.525 120.528 244.379C120.683 244.233 120.866 244.16 121.076 244.16C121.277 244.16 121.455 244.233 121.611 244.379C121.766 244.525 121.844 244.703 121.844 244.914C121.844 245.124 121.766 245.302 121.611 245.448C121.455 245.585 121.277 245.654 121.076 245.654ZM123.709 253.756V244.022H124.888V253.756H123.709ZM127.006 253.756V247.313H128.212V253.756H127.006ZM127.609 245.654C127.399 245.654 127.216 245.585 127.061 245.448C126.914 245.302 126.841 245.124 126.841 244.914C126.841 244.703 126.914 244.525 127.061 244.379C127.216 244.233 127.399 244.16 127.609 244.16C127.81 244.16 127.988 244.233 128.144 244.379C128.299 244.525 128.377 244.703 128.377 244.914C128.377 245.124 128.299 245.302 128.144 245.448C127.988 245.585 127.81 245.654 127.609 245.654ZM133.807 248.519C133.505 248.373 133.231 248.272 132.984 248.217C132.737 248.163 132.491 248.135 132.244 248.135C131.805 248.135 131.481 248.217 131.271 248.382C131.06 248.537 130.955 248.747 130.955 249.012C130.955 249.204 131.028 249.373 131.175 249.52C131.321 249.657 131.627 249.794 132.093 249.931L132.504 250.054C133.117 250.237 133.578 250.475 133.889 250.767C134.209 251.051 134.369 251.439 134.369 251.932C134.369 252.517 134.149 252.988 133.711 253.344C133.281 253.701 132.678 253.879 131.901 253.879C131.49 253.879 131.092 253.843 130.708 253.769C130.334 253.696 130.009 253.596 129.735 253.468L130.023 252.522C130.288 252.65 130.576 252.755 130.887 252.837C131.197 252.91 131.513 252.947 131.833 252.947C132.244 252.947 132.568 252.874 132.806 252.728C133.053 252.581 133.176 252.339 133.176 252.001C133.176 251.709 133.071 251.503 132.861 251.384C132.651 251.256 132.349 251.133 131.956 251.014L131.531 250.877C130.937 250.685 130.494 250.447 130.201 250.164C129.918 249.872 129.776 249.497 129.776 249.04C129.776 248.766 129.836 248.514 129.954 248.286C130.073 248.057 130.233 247.866 130.434 247.71C130.644 247.555 130.891 247.436 131.175 247.354C131.458 247.262 131.769 247.217 132.107 247.217C132.427 247.217 132.756 247.249 133.094 247.313C133.441 247.367 133.77 247.463 134.081 247.6L133.807 248.519ZM135.962 253.756V247.313H137.168V253.756H135.962ZM136.565 245.654C136.355 245.654 136.172 245.585 136.017 245.448C135.871 245.302 135.798 245.124 135.798 244.914C135.798 244.703 135.871 244.525 136.017 244.379C136.172 244.233 136.355 244.16 136.565 244.16C136.766 244.16 136.944 244.233 137.1 244.379C137.255 244.525 137.333 244.703 137.333 244.914C137.333 245.124 137.255 245.302 137.1 245.448C136.944 245.585 136.766 245.654 136.565 245.654ZM145.802 248.519C145.5 248.373 145.226 248.272 144.979 248.217C144.733 248.163 144.486 248.135 144.239 248.135C143.8 248.135 143.476 248.217 143.266 248.382C143.055 248.537 142.95 248.747 142.95 249.012C142.95 249.204 143.024 249.373 143.17 249.52C143.316 249.657 143.622 249.794 144.088 249.931L144.499 250.054C145.112 250.237 145.573 250.475 145.884 250.767C146.204 251.051 146.364 251.439 146.364 251.932C146.364 252.517 146.145 252.988 145.706 253.344C145.276 253.701 144.673 253.879 143.896 253.879C143.485 253.879 143.087 253.843 142.704 253.769C142.329 253.696 142.004 253.596 141.73 253.468L142.018 252.522C142.283 252.65 142.571 252.755 142.882 252.837C143.193 252.91 143.508 252.947 143.828 252.947C144.239 252.947 144.563 252.874 144.801 252.728C145.048 252.581 145.171 252.339 145.171 252.001C145.171 251.709 145.066 251.503 144.856 251.384C144.646 251.256 144.344 251.133 143.951 251.014L143.526 250.877C142.932 250.685 142.489 250.447 142.196 250.164C141.913 249.872 141.771 249.497 141.771 249.04C141.771 248.766 141.831 248.514 141.95 248.286C142.068 248.057 142.228 247.866 142.429 247.71C142.64 247.555 142.886 247.436 143.17 247.354C143.453 247.262 143.764 247.217 144.102 247.217C144.422 247.217 144.751 247.249 145.089 247.313C145.436 247.367 145.765 247.463 146.076 247.6L145.802 248.519ZM147.957 253.756V247.313H149.164V253.756H147.957ZM148.56 245.654C148.35 245.654 148.167 245.585 148.012 245.448C147.866 245.302 147.793 245.124 147.793 244.914C147.793 244.703 147.866 244.525 148.012 244.379C148.167 244.233 148.35 244.16 148.56 244.16C148.761 244.16 148.94 244.233 149.095 244.379C149.25 244.525 149.328 244.703 149.328 244.914C149.328 245.124 149.25 245.302 149.095 245.448C148.94 245.585 148.761 245.654 148.56 245.654ZM154.525 248.217H152.633V251.96C152.633 252.28 152.711 252.495 152.866 252.604C153.031 252.714 153.241 252.769 153.497 252.769C153.68 252.769 153.881 252.75 154.1 252.714C154.319 252.668 154.511 252.618 154.676 252.563L154.868 253.482C154.685 253.555 154.452 253.619 154.169 253.673C153.885 253.728 153.588 253.756 153.277 253.756C152.638 253.756 152.172 253.619 151.879 253.344C151.587 253.061 151.441 252.654 151.441 252.124V248.217H150.481V247.313H151.441V245.256H152.633V247.313H154.525V248.217ZM160.378 253.756H159.171V247.313H160.104L160.282 248.204C160.583 247.902 160.908 247.664 161.255 247.491C161.602 247.308 162.018 247.217 162.503 247.217C162.96 247.217 163.334 247.313 163.627 247.505C163.919 247.687 164.139 247.943 164.285 248.272C164.605 247.934 164.957 247.674 165.34 247.491C165.724 247.308 166.149 247.217 166.615 247.217C167.273 247.217 167.767 247.404 168.096 247.779C168.434 248.144 168.603 248.656 168.603 249.314V253.756H167.397V249.533C167.397 249.104 167.305 248.775 167.123 248.546C166.94 248.318 166.638 248.204 166.218 248.204C165.596 248.204 165.016 248.482 164.477 249.04C164.486 249.086 164.49 249.131 164.49 249.177C164.49 249.223 164.49 249.268 164.49 249.314V253.756H163.284V249.533C163.284 249.104 163.193 248.775 163.01 248.546C162.827 248.318 162.525 248.204 162.105 248.204C161.484 248.204 160.908 248.496 160.378 249.081V253.756ZM170.539 247.888C170.758 247.779 170.964 247.683 171.156 247.6C171.348 247.509 171.54 247.436 171.732 247.381C171.924 247.326 172.12 247.285 172.321 247.258C172.522 247.23 172.742 247.217 172.979 247.217C173.336 247.217 173.66 247.258 173.952 247.34C174.254 247.413 174.51 247.541 174.72 247.724C174.94 247.907 175.109 248.149 175.227 248.45C175.346 248.743 175.406 249.113 175.406 249.561V253.756H174.405L174.254 253.043H174.227C173.943 253.344 173.633 253.559 173.294 253.687C172.956 253.815 172.582 253.879 172.17 253.879C171.86 253.879 171.572 253.838 171.307 253.756C171.051 253.664 170.827 253.541 170.635 253.386C170.443 253.221 170.292 253.025 170.183 252.796C170.082 252.568 170.032 252.312 170.032 252.028C170.032 251.352 170.297 250.84 170.827 250.493C171.366 250.137 172.074 249.958 172.952 249.958H174.186V249.41C174.186 248.944 174.067 248.629 173.829 248.464C173.591 248.29 173.272 248.204 172.869 248.204C172.632 248.204 172.358 248.245 172.047 248.327C171.745 248.4 171.398 248.546 171.005 248.766L170.539 247.888ZM174.199 250.781L173.185 250.808C172.499 250.827 172.01 250.95 171.718 251.178C171.435 251.398 171.293 251.667 171.293 251.987C171.293 252.179 171.325 252.344 171.389 252.481C171.453 252.609 171.535 252.709 171.636 252.782C171.745 252.856 171.869 252.91 172.006 252.947C172.152 252.974 172.303 252.988 172.458 252.988C172.76 252.988 173.066 252.919 173.377 252.782C173.687 252.636 173.962 252.408 174.199 252.097V250.781ZM180.797 248.519C180.495 248.373 180.221 248.272 179.974 248.217C179.727 248.163 179.481 248.135 179.234 248.135C178.795 248.135 178.471 248.217 178.261 248.382C178.05 248.537 177.945 248.747 177.945 249.012C177.945 249.204 178.018 249.373 178.165 249.52C178.311 249.657 178.617 249.794 179.083 249.931L179.494 250.054C180.107 250.237 180.568 250.475 180.879 250.767C181.199 251.051 181.359 251.439 181.359 251.932C181.359 252.517 181.139 252.988 180.701 253.344C180.271 253.701 179.668 253.879 178.891 253.879C178.48 253.879 178.082 253.843 177.699 253.769C177.324 253.696 176.999 253.596 176.725 253.468L177.013 252.522C177.278 252.65 177.566 252.755 177.877 252.837C178.187 252.91 178.503 252.947 178.823 252.947C179.234 252.947 179.558 252.874 179.796 252.728C180.043 252.581 180.166 252.339 180.166 252.001C180.166 251.709 180.061 251.503 179.851 251.384C179.641 251.256 179.339 251.133 178.946 251.014L178.521 250.877C177.927 250.685 177.484 250.447 177.191 250.164C176.908 249.872 176.766 249.497 176.766 249.04C176.766 248.766 176.826 248.514 176.945 248.286C177.063 248.057 177.223 247.866 177.424 247.71C177.635 247.555 177.881 247.436 178.165 247.354C178.448 247.262 178.759 247.217 179.097 247.217C179.417 247.217 179.746 247.249 180.084 247.313C180.431 247.367 180.76 247.463 181.071 247.6L180.797 248.519ZM186.379 248.519C186.078 248.373 185.804 248.272 185.557 248.217C185.31 248.163 185.063 248.135 184.816 248.135C184.378 248.135 184.053 248.217 183.843 248.382C183.633 248.537 183.528 248.747 183.528 249.012C183.528 249.204 183.601 249.373 183.747 249.52C183.893 249.657 184.2 249.794 184.666 249.931L185.077 250.054C185.689 250.237 186.151 250.475 186.462 250.767C186.781 251.051 186.941 251.439 186.941 251.932C186.941 252.517 186.722 252.988 186.283 253.344C185.854 253.701 185.251 253.879 184.474 253.879C184.063 253.879 183.665 253.843 183.281 253.769C182.906 253.696 182.582 253.596 182.308 253.468L182.596 252.522C182.861 252.65 183.149 252.755 183.459 252.837C183.77 252.91 184.085 252.947 184.405 252.947C184.816 252.947 185.141 252.874 185.379 252.728C185.625 252.581 185.749 252.339 185.749 252.001C185.749 251.709 185.644 251.503 185.433 251.384C185.223 251.256 184.922 251.133 184.529 251.014L184.104 250.877C183.51 250.685 183.066 250.447 182.774 250.164C182.491 249.872 182.349 249.497 182.349 249.04C182.349 248.766 182.408 248.514 182.527 248.286C182.646 248.057 182.806 247.866 183.007 247.71C183.217 247.555 183.464 247.436 183.747 247.354C184.031 247.262 184.341 247.217 184.679 247.217C184.999 247.217 185.328 247.249 185.666 247.313C186.014 247.367 186.343 247.463 186.653 247.6L186.379 248.519ZM188.411 247.888C188.631 247.779 188.836 247.683 189.028 247.6C189.22 247.509 189.412 247.436 189.604 247.381C189.796 247.326 189.992 247.285 190.193 247.258C190.394 247.23 190.614 247.217 190.851 247.217C191.208 247.217 191.532 247.258 191.825 247.34C192.126 247.413 192.382 247.541 192.592 247.724C192.812 247.907 192.981 248.149 193.1 248.45C193.219 248.743 193.278 249.113 193.278 249.561V253.756H192.277L192.126 253.043H192.099C191.816 253.344 191.505 253.559 191.167 253.687C190.829 253.815 190.454 253.879 190.043 253.879C189.732 253.879 189.444 253.838 189.179 253.756C188.923 253.664 188.699 253.541 188.507 253.386C188.315 253.221 188.165 253.025 188.055 252.796C187.954 252.568 187.904 252.312 187.904 252.028C187.904 251.352 188.169 250.84 188.699 250.493C189.238 250.137 189.947 249.958 190.824 249.958H192.058V249.41C192.058 248.944 191.939 248.629 191.701 248.464C191.464 248.29 191.144 248.204 190.742 248.204C190.504 248.204 190.23 248.245 189.919 248.327C189.618 248.4 189.27 248.546 188.877 248.766L188.411 247.888ZM192.072 250.781L191.057 250.808C190.372 250.827 189.883 250.95 189.59 251.178C189.307 251.398 189.165 251.667 189.165 251.987C189.165 252.179 189.197 252.344 189.261 252.481C189.325 252.609 189.407 252.709 189.508 252.782C189.618 252.856 189.741 252.91 189.878 252.947C190.024 252.974 190.175 252.988 190.331 252.988C190.632 252.988 190.938 252.919 191.249 252.782C191.56 252.636 191.834 252.408 192.072 252.097V250.781ZM199.309 253.756H198.103V244.022H199.309V248.135C199.611 247.87 199.944 247.651 200.31 247.477C200.675 247.303 201.077 247.217 201.516 247.217C201.872 247.217 202.183 247.271 202.448 247.381C202.713 247.482 202.928 247.628 203.093 247.82C203.266 248.003 203.394 248.222 203.476 248.478C203.568 248.734 203.613 249.012 203.613 249.314V253.756H202.407V249.616C202.407 249.122 202.307 248.766 202.106 248.546C201.904 248.318 201.598 248.204 201.187 248.204C200.876 248.204 200.561 248.281 200.241 248.437C199.93 248.592 199.62 248.811 199.309 249.095V253.756ZM205.561 247.888C205.78 247.779 205.986 247.683 206.178 247.6C206.369 247.509 206.561 247.436 206.753 247.381C206.945 247.326 207.142 247.285 207.343 247.258C207.544 247.23 207.763 247.217 208.001 247.217C208.357 247.217 208.682 247.258 208.974 247.34C209.276 247.413 209.532 247.541 209.742 247.724C209.961 247.907 210.13 248.149 210.249 248.45C210.368 248.743 210.427 249.113 210.427 249.561V253.756H209.427L209.276 253.043H209.248C208.965 253.344 208.654 253.559 208.316 253.687C207.978 253.815 207.603 253.879 207.192 253.879C206.881 253.879 206.593 253.838 206.328 253.756C206.072 253.664 205.849 253.541 205.657 253.386C205.465 253.221 205.314 253.025 205.204 252.796C205.104 252.568 205.053 252.312 205.053 252.028C205.053 251.352 205.318 250.84 205.849 250.493C206.388 250.137 207.096 249.958 207.973 249.958H209.207V249.41C209.207 248.944 209.088 248.629 208.851 248.464C208.613 248.29 208.293 248.204 207.891 248.204C207.654 248.204 207.379 248.245 207.069 248.327C206.767 248.4 206.42 248.546 206.027 248.766L205.561 247.888ZM209.221 250.781L208.206 250.808C207.521 250.827 207.032 250.95 206.74 251.178C206.456 251.398 206.315 251.667 206.315 251.987C206.315 252.179 206.347 252.344 206.411 252.481C206.475 252.609 206.557 252.709 206.657 252.782C206.767 252.856 206.89 252.91 207.028 252.947C207.174 252.974 207.325 252.988 207.48 252.988C207.781 252.988 208.088 252.919 208.398 252.782C208.709 252.636 208.983 252.408 209.221 252.097V250.781ZM218.149 250.534C218.149 251.046 218.071 251.507 217.916 251.919C217.76 252.33 217.55 252.682 217.285 252.974C217.02 253.267 216.709 253.491 216.353 253.646C215.997 253.801 215.617 253.879 215.215 253.879C214.795 253.879 214.425 253.82 214.105 253.701C213.794 253.582 213.502 253.399 213.227 253.153H213.2L213.077 253.756H212.213V244.022H213.406V248.121C213.698 247.811 214.018 247.582 214.365 247.436C214.722 247.29 215.092 247.217 215.476 247.217C216.298 247.217 216.947 247.509 217.422 248.094C217.907 248.679 218.149 249.492 218.149 250.534ZM216.888 250.548C216.888 249.835 216.737 249.268 216.435 248.848C216.134 248.418 215.709 248.204 215.16 248.204C214.813 248.204 214.498 248.281 214.214 248.437C213.931 248.592 213.662 248.811 213.406 249.095V252.22C213.598 252.44 213.812 252.618 214.05 252.755C214.297 252.883 214.58 252.947 214.9 252.947C215.156 252.947 215.403 252.901 215.64 252.81C215.887 252.718 216.102 252.577 216.284 252.385C216.467 252.184 216.613 251.932 216.723 251.631C216.833 251.329 216.888 250.968 216.888 250.548ZM219.794 253.756V247.313H221.001V253.756H219.794ZM220.398 245.654C220.187 245.654 220.005 245.585 219.849 245.448C219.703 245.302 219.63 245.124 219.63 244.914C219.63 244.703 219.703 244.525 219.849 244.379C220.005 244.233 220.187 244.16 220.398 244.16C220.599 244.16 220.777 244.233 220.932 244.379C221.088 244.525 221.165 244.703 221.165 244.914C221.165 245.124 221.088 245.302 220.932 245.448C220.777 245.585 220.599 245.654 220.398 245.654ZM226.362 248.217H224.47V251.96C224.47 252.28 224.548 252.495 224.703 252.604C224.868 252.714 225.078 252.769 225.334 252.769C225.517 252.769 225.718 252.75 225.937 252.714C226.157 252.668 226.349 252.618 226.513 252.563L226.705 253.482C226.522 253.555 226.289 253.619 226.006 253.673C225.722 253.728 225.425 253.756 225.115 253.756C224.475 253.756 224.009 253.619 223.716 253.344C223.424 253.061 223.278 252.654 223.278 252.124V248.217H222.318V247.313H223.278V245.256H224.47V247.313H226.362V248.217ZM228.038 247.888C228.258 247.779 228.463 247.683 228.655 247.6C228.847 247.509 229.039 247.436 229.231 247.381C229.423 247.326 229.619 247.285 229.82 247.258C230.021 247.23 230.241 247.217 230.478 247.217C230.835 247.217 231.159 247.258 231.452 247.34C231.753 247.413 232.009 247.541 232.219 247.724C232.439 247.907 232.608 248.149 232.727 248.45C232.845 248.743 232.905 249.113 232.905 249.561V253.756H231.904L231.753 253.043H231.726C231.443 253.344 231.132 253.559 230.794 253.687C230.456 253.815 230.081 253.879 229.67 253.879C229.359 253.879 229.071 253.838 228.806 253.756C228.55 253.664 228.326 253.541 228.134 253.386C227.942 253.221 227.791 253.025 227.682 252.796C227.581 252.568 227.531 252.312 227.531 252.028C227.531 251.352 227.796 250.84 228.326 250.493C228.865 250.137 229.574 249.958 230.451 249.958H231.685V249.41C231.685 248.944 231.566 248.629 231.328 248.464C231.091 248.29 230.771 248.204 230.369 248.204C230.131 248.204 229.857 248.245 229.546 248.327C229.245 248.4 228.897 248.546 228.504 248.766L228.038 247.888ZM231.698 250.781L230.684 250.808C229.999 250.827 229.51 250.95 229.217 251.178C228.934 251.398 228.792 251.667 228.792 251.987C228.792 252.179 228.824 252.344 228.888 252.481C228.952 252.609 229.034 252.709 229.135 252.782C229.245 252.856 229.368 252.91 229.505 252.947C229.651 252.974 229.802 252.988 229.957 252.988C230.259 252.988 230.565 252.919 230.876 252.782C231.187 252.636 231.461 252.408 231.698 252.097V250.781ZM238.296 248.519C237.994 248.373 237.72 248.272 237.473 248.217C237.227 248.163 236.98 248.135 236.733 248.135C236.294 248.135 235.97 248.217 235.76 248.382C235.55 248.537 235.445 248.747 235.445 249.012C235.445 249.204 235.518 249.373 235.664 249.52C235.81 249.657 236.116 249.794 236.582 249.931L236.994 250.054C237.606 250.237 238.067 250.475 238.378 250.767C238.698 251.051 238.858 251.439 238.858 251.932C238.858 252.517 238.639 252.988 238.2 253.344C237.77 253.701 237.167 253.879 236.39 253.879C235.979 253.879 235.582 253.843 235.198 253.769C234.823 253.696 234.499 253.596 234.224 253.468L234.512 252.522C234.777 252.65 235.065 252.755 235.376 252.837C235.687 252.91 236.002 252.947 236.322 252.947C236.733 252.947 237.058 252.874 237.295 252.728C237.542 252.581 237.665 252.339 237.665 252.001C237.665 251.709 237.56 251.503 237.35 251.384C237.14 251.256 236.838 251.133 236.445 251.014L236.02 250.877C235.426 250.685 234.983 250.447 234.691 250.164C234.407 249.872 234.266 249.497 234.266 249.04C234.266 248.766 234.325 248.514 234.444 248.286C234.563 248.057 234.723 247.866 234.924 247.71C235.134 247.555 235.381 247.436 235.664 247.354C235.947 247.262 236.258 247.217 236.596 247.217C236.916 247.217 237.245 247.249 237.583 247.313C237.93 247.367 238.259 247.463 238.57 247.6L238.296 248.519ZM243.879 248.519C243.577 248.373 243.303 248.272 243.056 248.217C242.809 248.163 242.562 248.135 242.316 248.135C241.877 248.135 241.553 248.217 241.342 248.382C241.132 248.537 241.027 248.747 241.027 249.012C241.027 249.204 241.1 249.373 241.246 249.52C241.393 249.657 241.699 249.794 242.165 249.931L242.576 250.054C243.189 250.237 243.65 250.475 243.961 250.767C244.281 251.051 244.441 251.439 244.441 251.932C244.441 252.517 244.221 252.988 243.783 253.344C243.353 253.701 242.75 253.879 241.973 253.879C241.562 253.879 241.164 253.843 240.78 253.769C240.406 253.696 240.081 253.596 239.807 253.468L240.095 252.522C240.36 252.65 240.648 252.755 240.959 252.837C241.269 252.91 241.585 252.947 241.904 252.947C242.316 252.947 242.64 252.874 242.878 252.728C243.125 252.581 243.248 252.339 243.248 252.001C243.248 251.709 243.143 251.503 242.933 251.384C242.722 251.256 242.421 251.133 242.028 251.014L241.603 250.877C241.009 250.685 240.566 250.447 240.273 250.164C239.99 249.872 239.848 249.497 239.848 249.04C239.848 248.766 239.908 248.514 240.026 248.286C240.145 248.057 240.305 247.866 240.506 247.71C240.716 247.555 240.963 247.436 241.246 247.354C241.53 247.262 241.84 247.217 242.179 247.217C242.499 247.217 242.828 247.249 243.166 247.313C243.513 247.367 243.842 247.463 244.153 247.6L243.879 248.519ZM251.259 250.671H246.639V250.726C246.639 251.439 246.831 251.987 247.214 252.371C247.607 252.755 248.138 252.947 248.805 252.947C249.152 252.947 249.458 252.919 249.723 252.865C249.997 252.81 250.294 252.718 250.614 252.59L250.861 253.482C250.596 253.6 250.281 253.696 249.915 253.769C249.559 253.843 249.175 253.879 248.764 253.879C248.297 253.879 247.859 253.815 247.448 253.687C247.045 253.559 246.689 253.363 246.378 253.098C246.068 252.824 245.821 252.476 245.638 252.056C245.464 251.635 245.378 251.133 245.378 250.548C245.378 250.045 245.451 249.588 245.597 249.177C245.752 248.766 245.967 248.418 246.241 248.135C246.515 247.843 246.844 247.619 247.228 247.463C247.621 247.299 248.06 247.217 248.544 247.217C248.956 247.217 249.326 247.285 249.655 247.422C249.993 247.559 250.281 247.751 250.518 247.998C250.756 248.245 250.939 248.542 251.067 248.889C251.195 249.236 251.259 249.62 251.259 250.041V250.671ZM250.011 249.808C250.011 249.57 249.979 249.351 249.915 249.15C249.86 248.939 249.769 248.757 249.641 248.601C249.522 248.446 249.367 248.322 249.175 248.231C248.983 248.14 248.75 248.094 248.476 248.094C247.973 248.094 247.562 248.254 247.242 248.574C246.931 248.894 246.739 249.314 246.666 249.835L250.011 249.808ZM261.205 250.671H256.586V250.726C256.586 251.439 256.778 251.987 257.161 252.371C257.554 252.755 258.084 252.947 258.752 252.947C259.099 252.947 259.405 252.919 259.67 252.865C259.944 252.81 260.241 252.718 260.561 252.59L260.808 253.482C260.543 253.6 260.228 253.696 259.862 253.769C259.506 253.843 259.122 253.879 258.71 253.879C258.244 253.879 257.806 253.815 257.394 253.687C256.992 253.559 256.636 253.363 256.325 253.098C256.014 252.824 255.768 252.476 255.585 252.056C255.411 251.635 255.324 251.133 255.324 250.548C255.324 250.045 255.398 249.588 255.544 249.177C255.699 248.766 255.914 248.418 256.188 248.135C256.462 247.843 256.791 247.619 257.175 247.463C257.568 247.299 258.007 247.217 258.491 247.217C258.902 247.217 259.273 247.285 259.602 247.422C259.94 247.559 260.228 247.751 260.465 247.998C260.703 248.245 260.886 248.542 261.014 248.889C261.142 249.236 261.205 249.62 261.205 250.041V250.671ZM259.958 249.808C259.958 249.57 259.926 249.351 259.862 249.15C259.807 248.939 259.716 248.757 259.588 248.601C259.469 248.446 259.314 248.322 259.122 248.231C258.93 248.14 258.697 248.094 258.423 248.094C257.92 248.094 257.509 248.254 257.189 248.574C256.878 248.894 256.686 249.314 256.613 249.835L259.958 249.808ZM266.249 248.519C265.947 248.373 265.673 248.272 265.426 248.217C265.18 248.163 264.933 248.135 264.686 248.135C264.248 248.135 263.923 248.217 263.713 248.382C263.503 248.537 263.398 248.747 263.398 249.012C263.398 249.204 263.471 249.373 263.617 249.52C263.763 249.657 264.069 249.794 264.535 249.931L264.947 250.054C265.559 250.237 266.021 250.475 266.331 250.767C266.651 251.051 266.811 251.439 266.811 251.932C266.811 252.517 266.592 252.988 266.153 253.344C265.724 253.701 265.12 253.879 264.344 253.879C263.932 253.879 263.535 253.843 263.151 253.769C262.776 253.696 262.452 253.596 262.178 253.468L262.465 252.522C262.73 252.65 263.018 252.755 263.329 252.837C263.64 252.91 263.955 252.947 264.275 252.947C264.686 252.947 265.011 252.874 265.248 252.728C265.495 252.581 265.618 252.339 265.618 252.001C265.618 251.709 265.513 251.503 265.303 251.384C265.093 251.256 264.791 251.133 264.398 251.014L263.973 250.877C263.379 250.685 262.936 250.447 262.644 250.164C262.36 249.872 262.219 249.497 262.219 249.04C262.219 248.766 262.278 248.514 262.397 248.286C262.516 248.057 262.676 247.866 262.877 247.71C263.087 247.555 263.334 247.436 263.617 247.354C263.9 247.262 264.211 247.217 264.549 247.217C264.869 247.217 265.198 247.249 265.536 247.313C265.883 247.367 266.212 247.463 266.523 247.6L266.249 248.519ZM271.599 248.217H269.707V251.96C269.707 252.28 269.784 252.495 269.94 252.604C270.104 252.714 270.314 252.769 270.57 252.769C270.753 252.769 270.954 252.75 271.174 252.714C271.393 252.668 271.585 252.618 271.749 252.563L271.941 253.482C271.758 253.555 271.525 253.619 271.242 253.673C270.959 253.728 270.662 253.756 270.351 253.756C269.711 253.756 269.245 253.619 268.953 253.344C268.66 253.061 268.514 252.654 268.514 252.124V248.217H267.554V247.313H268.514V245.256H269.707V247.313H271.599V248.217ZM273.148 253.015C273.148 252.778 273.23 252.577 273.395 252.412C273.559 252.248 273.756 252.166 273.984 252.166C274.213 252.166 274.405 252.248 274.56 252.412C274.724 252.577 274.807 252.778 274.807 253.015C274.807 253.28 274.724 253.491 274.56 253.646C274.405 253.801 274.213 253.879 273.984 253.879C273.756 253.879 273.559 253.801 273.395 253.646C273.23 253.491 273.148 253.28 273.148 253.015Z" fill="#808080"/>
</g>
<defs>
<filter id="filter0_dddd" x="0.456078" y="0.548737" width="376.992" height="462.671" filterUnits="userSpaceOnUse" color-interpolation-filters="sRGB">
<feFlood flood-opacity="0" result="BackgroundImageFix"/>
<feColorMatrix in="SourceAlpha" type="matrix" values="0 0 0 0 0 0 0 0 0 0 0 0 0 0 0 0 0 0 127 0" result="hardAlpha"/>
<feOffset dy="3.88027"/>
<feGaussianBlur stdDeviation="1.55211"/>
<feColorMatrix type="matrix" values="0 0 0 0 0 0 0 0 0 0 0 0 0 0 0 0 0 0 0.0243888 0"/>
<feBlend mode="normal" in2="BackgroundImageFix" result="effect1_dropShadow"/>
<feColorMatrix in="SourceAlpha" type="matrix" values="0 0 0 0 0 0 0 0 0 0 0 0 0 0 0 0 0 0 127 0" result="hardAlpha"/>
<feOffset dy="10.7285"/>
<feGaussianBlur stdDeviation="4.29138"/>
<feColorMatrix type="matrix" values="0 0 0 0 0 0 0 0 0 0 0 0 0 0 0 0 0 0 0.035 0"/>
<feBlend mode="normal" in2="effect1_dropShadow" result="effect2_dropShadow"/>
<feColorMatrix in="SourceAlpha" type="matrix" values="0 0 0 0 0 0 0 0 0 0 0 0 0 0 0 0 0 0 127 0" result="hardAlpha"/>
<feOffset dy="25.83"/>
<feGaussianBlur stdDeviation="10.332"/>
<feColorMatrix type="matrix" values="0 0 0 0 0 0 0 0 0 0 0 0 0 0 0 0 0 0 0.0456112 0"/>
<feBlend mode="normal" in2="effect2_dropShadow" result="effect3_dropShadow"/>
<feColorMatrix in="SourceAlpha" type="matrix" values="0 0 0 0 0 0 0 0 0 0 0 0 0 0 0 0 0 0 127 0" result="hardAlpha"/>
<feOffset dy="85.6799"/>
<feGaussianBlur stdDeviation="34.272"/>
<feColorMatrix type="matrix" values="0 0 0 0 0 0 0 0 0 0 0 0 0 0 0 0 0 0 0.07 0"/>
<feBlend mode="normal" in2="effect3_dropShadow" result="effect4_dropShadow"/>
<feBlend mode="normal" in="SourceGraphic" in2="effect4_dropShadow" result="shape"/>
</filter>
<linearGradient id="paint0_linear" x1="188.521" y1="77.9709" x2="188.521" y2="136.3" gradientUnits="userSpaceOnUse">
<stop stop-color="#C5C5C6"/>
<stop offset="1" stop-color="#C5C5C6" stop-opacity="0"/>
</linearGradient>
<linearGradient id="paint1_linear" x1="175.412" y1="51.0999" x2="175.412" y2="78.6262" gradientUnits="userSpaceOnUse">
<stop stop-color="#C5C5C6"/>
<stop offset="1" stop-color="#C5C5C6" stop-opacity="0"/>
</linearGradient>
</defs>
</svg>
