<svg width="48" height="45" viewBox="0 0 48 45" fill="none" xmlns="http://www.w3.org/2000/svg">
<path d="M37.9993 40.5912H31.85V37.357H28.8275H25.7007V34.0113V30.7771H28.8275V27.4313H19.5514V30.7771H22.574V34.0113V37.357H16.4247V40.5912H10.2754V43.9369H37.9993V40.5912H44.2528V37.357H37.9993V40.5912Z" fill="#FF6C0E"/>
<path d="M37.9993 40.5912H31.85V37.357H28.8275H25.7007V34.0113V30.7771H28.8275V27.4313H19.5514V30.7771H22.574V34.0113V37.357H16.4247V40.5912H10.2754V43.9369H37.9993V40.5912ZM37.9993 40.5912H44.2528V37.357H37.9993V40.5912Z" stroke="#FF6C0E" stroke-width="0.342377" stroke-miterlimit="10"/>
<path d="M34.9785 17.5057V20.8514H38.001V27.4313H41.1278V4.34576H38.001V17.5057H34.9785Z" fill="#FF6C0E" stroke="#FF6C0E" stroke-width="0.342377" stroke-miterlimit="10"/>
<path d="M34.9755 14.2715H28.8262V17.6172H34.9755V14.2715Z" fill="#FF6C0E" stroke="#FF6C0E" stroke-width="0.342377" stroke-miterlimit="10"/>
<path d="M28.8288 10.9257H19.5527V14.2714H28.8288V10.9257Z" fill="#FF6C0E" stroke="#FF6C0E" stroke-width="0.342377" stroke-miterlimit="10"/>
<path d="M10.2752 20.8514H13.4019V17.5057H10.2752V4.34576H7.14844V27.4313H10.2752V20.8514Z" fill="#FF6C0E" stroke="#FF6C0E" stroke-width="0.342377" stroke-miterlimit="10"/>
<path d="M19.5516 14.2715H13.4023V17.6172H19.5516V14.2715Z" fill="#FF6C0E" stroke="#FF6C0E" stroke-width="0.342377" stroke-miterlimit="10"/>
<path d="M4.12674 34.0112H1V37.357H4.12674V34.0112Z" fill="#FF6C0E" stroke="#FF6C0E" stroke-width="0.342377" stroke-miterlimit="10"/>
<path d="M7.25372 27.4313H4.12695V34.0113H7.25372V27.4313Z" fill="#FF6C0E" stroke="#FF6C0E" stroke-width="0.342377" stroke-miterlimit="10"/>
<path d="M10.2762 37.3569H4.12695V40.7026H10.2762V37.3569Z" fill="#FF6C0E" stroke="#FF6C0E" stroke-width="0.342377" stroke-miterlimit="10"/>
<path d="M47.3807 34.0112H44.2539V37.357H47.3807V34.0112Z" fill="#FF6C0E" stroke="#FF6C0E" stroke-width="0.342377" stroke-miterlimit="10"/>
<path d="M44.2537 27.4313H41.127V34.0113H44.2537V27.4313Z" fill="#FF6C0E" stroke="#FF6C0E" stroke-width="0.342377" stroke-miterlimit="10"/>
<path d="M34.9783 24.0856H31.8516V30.6655H34.9783V24.0856Z" fill="#FF6C0E" stroke="#FF6C0E" stroke-width="0.342377" stroke-miterlimit="10"/>
<path d="M16.5291 24.0856H13.4023V30.6655H16.5291V24.0856Z" fill="#FF6C0E" stroke="#FF6C0E" stroke-width="0.342377" stroke-miterlimit="10"/>
<path d="M34.9783 4.34576H31.8516V7.69147H34.9783V4.34576Z" fill="#FF6C0E" stroke="#FF6C0E" stroke-width="0.342377" stroke-miterlimit="10"/>
<path d="M38.1053 1H34.9785V4.3457H38.1053V1Z" fill="#FF6C0E" stroke="#FF6C0E" stroke-width="0.342377" stroke-miterlimit="10"/>
<path d="M31.9529 7.57999H28.8262V10.9257H31.9529V7.57999Z" fill="#FF6C0E" stroke="#FF6C0E" stroke-width="0.342377" stroke-miterlimit="10"/>
<path d="M19.5526 7.57999H16.4258V10.9257H19.5526V7.57999Z" fill="#FF6C0E" stroke="#FF6C0E" stroke-width="0.342377" stroke-miterlimit="10"/>
<path d="M16.5291 4.34576H13.4023V7.69147H16.5291V4.34576Z" fill="#FF6C0E" stroke="#FF6C0E" stroke-width="0.342377" stroke-miterlimit="10"/>
<path d="M13.4022 1H10.2754V4.3457H13.4022V1Z" fill="#FF6C0E" stroke="#FF6C0E" stroke-width="0.342377" stroke-miterlimit="10"/>
</svg>
