<svg width="112" height="112" viewBox="0 0 112 112" fill="none" xmlns="http://www.w3.org/2000/svg">
<rect width="112" height="112" rx="5.6" fill="#61DAFB"/>
<path d="M107.16 56.2104C107.16 49.456 98.701 43.0549 85.7325 39.0854C88.7252 25.8675 87.3951 15.3514 81.5344 11.9846C80.1835 11.1949 78.604 10.8208 76.879 10.8208V15.4553C77.8351 15.4553 78.604 15.6424 79.2483 15.9957C82.0748 17.6168 83.3009 23.7892 82.3449 31.7283C82.1163 33.6819 81.7422 35.7393 81.285 37.8384C77.2116 36.8408 72.7641 36.0719 68.0879 35.5731C65.2823 31.7283 62.3727 28.2368 59.4423 25.1817C66.2175 18.8845 72.577 15.4346 76.8998 15.4346V10.8C71.1846 10.8 63.7028 14.8734 56.1378 21.9396C48.5729 14.915 41.0911 10.8831 35.3758 10.8831V15.5177C39.6779 15.5177 46.0582 18.9469 52.8334 25.2025C49.9238 28.2575 47.0142 31.7283 44.2501 35.5731C39.5532 36.0719 35.1057 36.8408 31.0322 37.8592C30.5542 35.7809 30.2009 33.765 29.9515 31.8322C28.9747 23.8932 30.1801 17.7207 32.9858 16.0788C33.6093 15.7047 34.4198 15.5385 35.3758 15.5385V10.9039C33.6301 10.9039 32.0506 11.278 30.6789 12.0678C24.839 15.4346 23.5296 25.9299 26.5431 39.1062C13.6162 43.0965 5.19922 49.4768 5.19922 56.2104C5.19922 62.9648 13.6578 69.3659 26.6263 73.3354C23.6336 86.5533 24.9637 97.0694 30.8244 100.436C32.1753 101.226 33.7548 101.6 35.5005 101.6C41.2158 101.6 48.6976 97.5266 56.2625 90.4604C63.8275 97.485 71.3093 101.517 77.0245 101.517C78.7703 101.517 80.3498 101.143 81.7215 100.353C87.5614 96.9862 88.8707 86.4909 85.8572 73.3146C98.7425 69.3451 107.16 62.944 107.16 56.2104ZM80.1004 42.3483C79.3314 45.0293 78.3754 47.7934 77.2947 50.5575C76.4426 48.8949 75.549 47.2322 74.5722 45.5696C73.6162 43.907 72.5978 42.2859 71.5795 40.7064C74.5306 41.1429 77.3778 41.6832 80.1004 42.3483ZM70.5819 64.4819C68.9608 67.2876 67.2982 69.9478 65.5732 72.421C62.4766 72.6911 59.3384 72.8366 56.1794 72.8366C53.0412 72.8366 49.903 72.6911 46.8271 72.4418C45.1022 69.9686 43.4188 67.3292 41.7977 64.5443C40.2182 61.8218 38.7842 59.0576 37.4749 56.2727C38.7634 53.4878 40.2182 50.703 41.7769 47.9804C43.398 45.1747 45.0606 42.5145 46.7856 40.0414C49.8822 39.7712 53.0204 39.6257 56.1794 39.6257C59.3176 39.6257 62.4558 39.7712 65.5317 40.0206C67.2566 42.4938 68.94 45.1332 70.5611 47.9181C72.1406 50.6406 73.5746 53.4047 74.8839 56.1896C73.5746 58.9745 72.1406 61.7594 70.5819 64.4819ZM77.2947 61.7802C78.417 64.5651 79.373 67.35 80.1627 70.0517C77.4402 70.7168 74.5722 71.2779 71.6002 71.7144C72.6186 70.1141 73.6369 68.4722 74.593 66.7888C75.549 65.1262 76.4426 63.4428 77.2947 61.7802ZM56.221 83.9554C54.2882 81.9603 52.3554 79.7365 50.4433 77.3049C52.3138 77.3881 54.2258 77.4504 56.1586 77.4504C58.1122 77.4504 60.045 77.4088 61.9362 77.3049C60.0658 79.7365 58.133 81.9603 56.221 83.9554ZM40.7586 71.7144C37.8074 71.2779 34.9602 70.7376 32.2376 70.0725C33.0066 67.3915 33.9626 64.6274 35.0433 61.8633C35.8954 63.5259 36.7891 65.1886 37.7658 66.8512C38.7426 68.5138 39.7402 70.1349 40.7586 71.7144ZM56.1171 28.4654C58.0499 30.4605 59.9826 32.6843 61.8947 35.1159C60.0242 35.0327 58.1122 34.9704 56.1794 34.9704C54.2258 34.9704 52.293 35.012 50.4018 35.1159C52.2722 32.6843 54.205 30.4605 56.1171 28.4654ZM40.7378 40.7064C39.7194 42.3067 38.7011 43.9486 37.7451 45.632C36.7891 47.2946 35.8954 48.9572 35.0433 50.6198C33.921 47.8349 32.965 45.05 32.1753 42.3483C34.8978 41.704 37.7659 41.1429 40.7378 40.7064ZM21.9294 66.7265C14.5723 63.5883 9.813 59.4733 9.813 56.2104C9.813 52.9475 14.5723 48.8117 21.9294 45.6943C23.7167 44.9253 25.6703 44.2395 27.6862 43.5952C28.8708 47.6687 30.4295 51.9084 32.3623 56.252C30.4503 60.5748 28.9124 64.7937 27.7485 68.8463C25.6911 68.2021 23.7375 67.4954 21.9294 66.7265ZM33.1105 96.4251C30.284 94.804 29.0579 88.6315 30.0139 80.6925C30.2425 78.7389 30.6166 76.6814 31.0738 74.5824C35.1472 75.58 39.5947 76.3489 44.2709 76.8477C47.0765 80.6925 49.9861 84.184 52.9165 87.2391C46.1413 93.5363 39.7818 96.9862 35.459 96.9862C34.5237 96.9654 33.734 96.7784 33.1105 96.4251ZM82.4073 80.5886C83.3841 88.5276 82.1787 94.7001 79.373 96.342C78.7495 96.716 77.939 96.8823 76.983 96.8823C72.6809 96.8823 66.3006 93.4532 59.5254 87.1975C62.435 84.1425 65.3446 80.6717 68.1087 76.8269C72.8056 76.3281 77.2531 75.5592 81.3266 74.5408C81.8046 76.6399 82.1787 78.6558 82.4073 80.5886ZM90.4087 66.7265C88.6213 67.4954 86.6677 68.1813 84.6518 68.8256C83.4672 64.7521 81.9085 60.5124 79.9757 56.1688C81.8877 51.846 83.4256 47.6271 84.5895 43.5745C86.647 44.2187 88.6005 44.9253 90.4294 45.6943C97.7865 48.8325 102.546 52.9475 102.546 56.2104C102.525 59.4733 97.7658 63.6091 90.4087 66.7265Z" fill="white"/>
<path d="M56.1579 65.7075C61.4033 65.7075 65.6556 61.4552 65.6556 56.2097C65.6556 50.9643 61.4033 46.712 56.1579 46.712C50.9124 46.712 46.6602 50.9643 46.6602 56.2097C46.6602 61.4552 50.9124 65.7075 56.1579 65.7075Z" fill="white"/>
</svg>
